<?xml version="1.0" encoding="UTF-8"?>
<!DOCTYPE svg PUBLIC "-//W3C//DTD SVG 1.1//EN" "http://www.w3.org/Graphics/SVG/1.1/DTD/svg11.dtd">
<!-- Creator: CorelDRAW 2020 (64-Bit) -->
<svg xmlns="http://www.w3.org/2000/svg" xml:space="preserve" width="279.4mm" height="180mm" version="1.1" style="shape-rendering:geometricPrecision; text-rendering:geometricPrecision; image-rendering:optimizeQuality; fill-rule:evenodd; clip-rule:evenodd"
viewBox="0 0 27940 18000"
 xmlns:xlink="http://www.w3.org/1999/xlink"
 xmlns:xodm="http://www.corel.com/coreldraw/odm/2003">
 <defs>
  <style type="text/css">
   <![CDATA[
    .fil6 {fill:#002B58}
    .fil10 {fill:#2E4BFC}
    .fil5 {fill:#305478}
    .fil12 {fill:#343334}
    .fil16 {fill:#34719D}
    .fil1 {fill:#46AAA6}
    .fil15 {fill:#565462}
    .fil2 {fill:#637E99}
    .fil14 {fill:#A7B6C5}
    .fil4 {fill:#EEEEEE}
    .fil9 {fill:#FE9A58}
    .fil3 {fill:#FEA142}
    .fil0 {fill:url(#id1)}
    .fil13 {fill:url(#id2)}
    .fil11 {fill:url(#id3)}
    .fil8 {fill:url(#id4)}
    .fil7 {fill:url(#id5)}
   ]]>
  </style>
   <clipPath id="id0">
    <rect x="4924.77" y="20178.71" width="20666.37" height="13070.4"/>
   </clipPath>
  <linearGradient id="id1" gradientUnits="userSpaceOnUse" x1="16022.95" y1="14232.38" x2="11912.51" y2="-306.27">
   <stop offset="0" style="stop-opacity:1; stop-color:white"/>
   <stop offset="0.670588" style="stop-opacity:1; stop-color:#93E6D6"/>
   <stop offset="1" style="stop-opacity:1; stop-color:#27CCAC"/>
  </linearGradient>
  <linearGradient id="id2" gradientUnits="userSpaceOnUse" x1="19022.87" y1="6273.76" x2="18838.98" y2="5746.14">
   <stop offset="0" style="stop-opacity:1; stop-color:white"/>
   <stop offset="1" style="stop-opacity:1; stop-color:#C4F1E8"/>
  </linearGradient>
  <linearGradient id="id3" gradientUnits="userSpaceOnUse" x1="14355.45" y1="5280.31" x2="14355.45" y2="1511.7">
   <stop offset="0" style="stop-opacity:1; stop-color:#9CE8D9"/>
   <stop offset="0.309804" style="stop-opacity:1; stop-color:#7BE0CC"/>
   <stop offset="1" style="stop-opacity:1; stop-color:#59D8BF"/>
  </linearGradient>
  <linearGradient id="id4" gradientUnits="userSpaceOnUse" x1="19123.68" y1="6000.66" x2="18844.47" y2="4746.94">
   <stop offset="0" style="stop-opacity:1; stop-color:white"/>
   <stop offset="0.34902" style="stop-opacity:1; stop-color:#CDF3EC"/>
   <stop offset="1" style="stop-opacity:1; stop-color:#9AE7D8"/>
  </linearGradient>
  <linearGradient id="id5" gradientUnits="userSpaceOnUse" x1="16055.44" y1="6699.07" x2="15551.28" y2="5199.19">
   <stop offset="0" style="stop-opacity:1; stop-color:white"/>
   <stop offset="0.368627" style="stop-opacity:1; stop-color:#D0F4ED"/>
   <stop offset="1" style="stop-opacity:1; stop-color:#A0E8DA"/>
  </linearGradient>
 </defs>
 <g id="Capa_x0020_1">
  <metadata id="CorelCorpID_0Corel-Layer"/>
  <g style="clip-path:url(#id0)">
   <image id="mision.jpg" x="4924.77" y="20178.71" width="20666.37" height="13070.4" xlink:href="mision_Images\mision_ImgID1.png"/>
  </g>
  <path class="fil0" d="M84.32 3513.5c488,-172.47 208.56,-157.23 888.8,-163.62 640.43,-6.02 230.08,-869.73 875.58,-1207.7 394.64,-206.63 1291.06,-211.09 1634.95,204.52 122.06,147.52 60.15,178.65 302.48,230.74 335.46,72.12 774.15,367.36 890.52,709.05 133.45,391.86 -66.05,580.19 -123.61,881.86 427.19,-21.9 1120.85,-12.44 1507.72,187.51 311.49,161.02 219.71,110.49 341.84,542.1 50.86,179.74 407.23,261.15 575.47,289.64l-6893.75 5.08 0 8569c1075.85,-216.62 2307.13,-842.49 3257.15,-1346.25 335.33,-177.81 1273.01,-850.83 1568.26,-1134.36 1239.57,-1190.4 1971.04,-2228.73 2841.78,-3699.82l601.45 -926.18c123.68,-167.72 179.84,-279.83 312.82,-433.73l257.63 -311.98c319.65,-332.12 377.73,-486.87 949.63,-827.01 679.64,-404.2 1699.14,-510.79 2530.29,-241.89 833.65,269.71 1656.38,925.43 2047.81,1059.44l-589.68 -4556.29c-13.15,-99.82 -24.04,-198.49 -37.31,-295.98 -7.19,-52.91 -20.54,-122.72 -25.49,-172.77 -21.52,-217.55 17.08,-180.45 26.31,-199.71 118.31,0.22 112.34,16.64 133.64,156.99 15,98.82 17.94,195.96 45.1,290.87 730.98,-46.97 1521.58,-162.43 2256.46,-237.1 877.99,-89.23 3969.82,-497.8 4613.83,-143.48 279.73,153.9 252.47,344.03 325.05,916.37 47.84,377.26 90.38,767.48 131.88,1153.5 188.59,26.84 603.29,-45.95 867.41,-31.03 362.8,20.52 514.31,108.08 803.93,162.64 1335.64,-712.4 3171.43,-864.92 4848.87,-638.01l0 -2141.48 -27766.82 0 0 3349.08z"/>
  <path class="fil1" d="M12474.34 8675.98c46.33,-179.19 33.16,-321.09 188.64,-377.97 352.61,-129.03 502.6,104.82 606.34,153.89 149.51,70.71 359.53,96.74 236.68,480.4 135.85,11.15 312.14,15.51 434.26,57.42 183.06,62.83 50.91,67.38 172.25,222.83 12.78,16.38 38.2,47.18 42.21,39.48 3.52,-6.75 16.45,12.69 24.08,27.12l-2915.88 -72.86c385.32,-105.95 178.02,-92.87 357.5,-173.7 276.45,-124.49 336.07,90.16 427.27,-283.01 175.21,-53.63 239.4,-44.63 426.65,-73.6zm-12390.02 5085.7l0 3963.8 8600.98 0 197.95 -198.59 36.11 -32.93 -36.11 32.93 -7709.95 -7.28c53.06,-36.44 -42.56,1.07 80.99,-46.69l588.45 -122.09c199.73,-40.83 440.61,-97.61 627.17,-153.56 554.72,-166.35 656.22,-338.51 1003.04,-564.81 317.11,-206.92 791.1,-29.29 1238.55,-323.68 387.31,-254.84 94.18,-588.41 698.93,-866.54 440.33,-202.52 1044.36,67.49 1256.97,-306.13 121.64,-213.79 104.89,-893.49 448.48,-1114.74 543.92,-350.26 1836.71,-448.37 2251.2,385.32 529.88,55.65 883.54,359.14 1090.76,625.49 369.26,474.69 102.83,853.01 -15.55,1297.71 676.72,-270.02 559.09,-308.64 1114.71,-926.52 592.67,-659.09 299.58,-422.62 1158.2,-864.39 352.49,-181.34 2532.39,-1276.72 2667.9,-1399.9l-680.31 -5304.74 -75.32 -1.6 -10.83 -74.02 -2.55 -449.93 -162.95 -1408.89c-391.43,-134.01 -1214.16,-789.73 -2047.81,-1059.44 -831.15,-268.9 -1850.65,-162.31 -2530.29,241.89 -571.9,340.14 -629.98,494.89 -949.63,827.01l-257.63 311.98c-132.98,153.9 -189.14,266.01 -312.82,433.73l-601.45 926.18c-870.74,1471.09 -1602.21,2509.42 -2841.78,3699.82 -295.25,283.53 -1232.93,956.55 -1568.26,1134.36 -950.02,503.76 -2181.3,1129.63 -3257.15,1346.25z"/>
  <path class="fil1" d="M23002.27 2943.91c339.78,285.41 313.11,157.82 404.43,705.54 50.32,301.7 105.35,610.99 156.7,915.81 99.76,591.98 246.04,1273.12 312.99,1867.99 57.64,204.85 176.84,339.89 15.22,543.49 -157.12,197.92 -840.59,638.31 -553.39,1182.97 62.85,119.21 92.32,103.78 150.08,226.33 -944.5,-125.73 -369.39,-1672.5 -271.98,-2080.58l-85.66 -51.9c-589.92,-108.6 -824.4,-12.89 -1256.87,234.83 -160.38,91.86 -327.83,185.85 -544.75,236.81 -200.56,47.11 -541.95,28.35 -564.53,-161.86l-125.84 -693c-605.7,183.76 -742.69,104.59 -1283.32,-90.07l-16.86 84.9c-204.09,78.75 -524.38,390.71 -750.47,401 15.44,-77.66 31.43,-58.3 -47.68,-58.3 11.23,72.45 -12.11,61.7 47.68,58.3 43.51,173.4 169.8,274.05 245.93,458.78 6.49,5.49 16.3,5.88 19.04,16.96 2.75,11.04 15.08,13.47 18.89,17.03 38.76,36.22 16.55,18.54 55.64,53.02l322.86 282.14c302.34,227.38 36.3,49.29 308.3,481.41 176.5,35.61 660.71,333.56 799.56,436.36 255.63,189.27 359.71,378.79 569.69,626.57 30.68,66.51 58.44,-84.04 21.36,80.68l-118.96 9.72c-291.25,42.17 -379.92,225.93 -532.27,378.01 -142.81,142.58 -320.46,349.63 -493.12,419.02 0,62.74 14.12,48.17 -49.69,34.35l-22.97 49.04 62.68 485.3c-470.95,37.36 -121.14,100.4 -435.03,78.14 -65.72,-102.57 -122.77,-255.68 -101.64,-411.53 -179.27,-72.27 -228.54,-168.71 -410.49,-173.71 61.24,359.44 -246.64,1916.63 -204.38,2199.14 17.57,117.46 742.37,1324.46 860.85,1607.4 266.72,36.36 673.89,12.78 989.12,30.32 23.85,20.37 17.16,42.66 35.39,67.65l24.18 46.24 27.25 45.4 47.08 45.6 1421.23 1650.56c341.74,478.16 1528.6,1716.5 1851.54,2196.9 1085.28,4.4 1085.07,-103.94 1267.3,248.81l2683.78 0 0 -6346.99 -8300.58 -5.25c120.57,-87.55 276.76,-91.38 495.91,-140.93 320.66,-72.49 626.34,-129.56 903.77,-300.68 141.24,-87.12 213.91,-195.45 345.2,-258.02 332.07,-158.27 617.56,-2.31 958.43,-251.07 323.9,-236.38 27.56,-434.56 546.07,-661.74 359.46,-157.51 834.96,61.09 963.99,-245.47 142,-337.4 74.27,-675.55 350.06,-858.32 343.55,-227.67 1012.45,-284.61 1458.42,6.15 178.07,116.09 118.64,86.71 245.15,256.49 3.41,4.57 14.77,26.27 17.28,20.6 30.15,-68.28 666.37,272.91 837.25,473.65 273.15,320.87 121.08,647.08 13.73,1010.96 434.73,-25.89 748.18,7.26 1165.32,98.4l0 -8217.36c-1677.44,-226.91 -3513.23,-74.39 -4848.87,638.01z"/>
  <path class="fil2" d="M10442.29 16329.89c-424.39,216.16 -525.32,217.33 -827.23,510.12 -245.71,238.33 -456.1,432.02 -695.7,653.95l-36.11 32.93 -197.95 198.59 9869.3 0c166.44,-85.73 386.93,-42.59 571.78,-41.49l-242.12 -2415.96c182.21,206.6 610.01,1063.86 808.38,1408.69 64.27,111.69 181.82,387.19 279.45,437.14l36.12 -875.39c248.48,-178.13 802.36,-431.92 972.98,-610.36 -66.87,-354.89 -163.21,-703.28 -245.17,-1060.97 -41.39,-180.68 -85.93,-357.15 -130.58,-548.94l-96.63 -400.54c-32.66,-228.4 -17.36,-59.88 19.97,-125.69l24.18 46.24 27.25 45.4c-7.71,63.63 -20.3,45.6 47.08,45.6l-47.08 -45.6 -27.25 -45.4 -24.18 -46.24c-18.23,-24.99 -11.54,-47.28 -35.39,-67.65 -315.23,-17.54 -722.4,6.04 -989.12,-30.32l-588.17 -7.47 -273.15 5.39 -742.34 -861.23c-117.41,-106.78 -410.68,-167.92 -597.61,-211.82 -407.41,-95.68 -255.41,78.39 -585.29,114.9l-31.76 -72.63 31.76 72.63c19.24,204.99 173.94,598.43 236.02,827.35 84.22,310.58 196.84,554.47 258.55,841.4l-210.59 -5.09c43.13,169.46 162.59,380.71 76.18,535.94 -119.08,47.91 -1219.17,-2.15 -1345.62,-71.72 12.62,-149.09 -22.84,-70.59 137.92,-139.68l628.58 -336.69 39.3 -57.7c-67.18,-137.95 -447.05,-1083.05 -549.95,-1182.98 -90.96,48.8 -135.74,72.31 -227.04,120.18 -48.77,25.58 -73.17,44.46 -117.2,63.16 -6.31,2.68 -16.36,8.41 -22.37,10.36 -5.36,1.73 -16.01,5.7 -20.96,6.68 -49.38,9.75 -26.05,2.77 -55.39,-8.96 -55.27,-164 -130.44,-908.22 -165.73,-1175.15 -8.99,-67.98 -19.77,-135.85 -28.8,-203.43 -18.18,-136.17 -20.15,-139.37 28,-197.37 -17.54,76.22 -41.42,66.15 20.64,66.15l-20.64 -66.15c-64.91,-214.47 -250.92,-412.5 -230.76,-631.91 7.16,-77.9 5.53,-53.78 36.28,-116.12l40.46 -63.22c2.56,-4.19 8.76,-13.85 12.53,-21.11l-374.74 -2793.92 -159.59 0.55 680.31 5304.74c-135.51,123.18 -2315.41,1218.56 -2667.9,1399.9 -858.62,441.77 -565.53,205.3 -1158.2,864.39 -555.62,617.88 -437.99,656.5 -1114.71,926.52z"/>
  <path class="fil3" d="M14003.71 1123.01l54.77 388.69c269.81,290.97 479.75,1205.78 542.93,1693.23 91.11,703.07 53,1397.18 -57.27,2075.38l17.62 224.9 1714.4 -278.92c-58.32,-189.68 -12.78,-282.4 21.15,-476.09 -4.95,-6.89 -14.11,-24.99 -16.81,-19.13 -2.7,5.89 -14.05,-14.58 -17.77,-18.34 -60.24,-60.82 -65.6,-39.81 -91.33,-140.27l116.44 -116.81c176.8,-134.45 167.37,-185.75 264.48,-453.09l-113.79 -236.81c282.6,-381.96 907.33,-199.81 1243.52,26.97 326.09,219.95 276.86,1078.66 -245.17,1058.49l70.02 179.34c427.11,-74.56 863.77,-131.73 1300.53,-187.26 533,-67.77 892.52,-29.66 1411.99,-18.57 202.88,14.39 1176.04,219.52 1286.23,280.97 -123.03,320.48 -202.53,446.28 -378.39,708.87 -148.1,221.11 -310.81,438.78 -362.75,748.78 22.58,190.21 363.97,208.97 564.53,161.86 216.92,-50.96 384.37,-144.95 544.75,-236.81 432.47,-247.72 666.95,-343.43 1256.87,-234.83 275.75,89.45 512.36,206.02 751.72,284.48l-5.99 -104.79c-66.95,-594.87 -213.23,-1276.01 -312.99,-1867.99 -51.35,-304.82 -106.38,-614.11 -156.7,-915.81 -91.32,-547.72 -64.65,-420.13 -404.43,-705.54 -289.62,-54.56 -441.13,-142.12 -803.93,-162.64 -264.12,-14.92 -678.82,57.87 -867.41,31.03 -41.5,-386.02 -84.04,-776.24 -131.88,-1153.5 -72.58,-572.34 -45.32,-762.47 -325.05,-916.37 -644.01,-354.32 -3735.84,54.25 -4613.83,143.48 -734.88,74.67 -1525.48,190.13 -2256.46,237.1z"/>
  <path class="fil4" d="M8883.25 17526.89l36.11 -32.93c239.6,-221.93 449.99,-415.62 695.7,-653.95 301.91,-292.79 402.84,-293.96 827.23,-510.12 118.38,-444.7 384.81,-823.02 15.55,-1297.71 -207.22,-266.35 -560.88,-569.84 -1090.76,-625.49 -414.49,-833.69 -1707.28,-735.58 -2251.2,-385.32 -343.59,221.25 -326.84,900.95 -448.48,1114.74 -212.61,373.62 -816.64,103.61 -1256.97,306.13 -604.75,278.13 -311.62,611.7 -698.93,866.54 -447.45,294.39 -921.44,116.76 -1238.55,323.68 -346.82,226.3 -448.32,398.46 -1003.04,564.81 -186.56,55.95 -427.44,112.73 -627.17,153.56l-588.45 122.09c-123.55,47.76 -27.93,10.25 -80.99,46.69l7709.95 7.28z"/>
  <path class="fil4" d="M84.32 3513.5l0 1679.18 6893.75 -5.08c-168.24,-28.49 -524.61,-109.9 -575.47,-289.64 -122.13,-431.61 -30.35,-381.08 -341.84,-542.1 -386.87,-199.95 -1080.53,-209.41 -1507.72,-187.51 57.56,-301.67 257.06,-490 123.61,-881.86 -116.37,-341.69 -555.06,-636.93 -890.52,-709.05 -242.33,-52.09 -180.42,-83.22 -302.48,-230.74 -343.89,-415.61 -1240.31,-411.15 -1634.95,-204.52 -645.5,337.97 -235.15,1201.68 -875.58,1207.7 -680.24,6.39 -400.8,-8.85 -888.8,163.62z"/>
  <path class="fil4" d="M27851.14 11378.49l0 -855.23c-417.14,-91.14 -730.59,-124.29 -1165.32,-98.4 107.35,-363.88 259.42,-690.09 -13.73,-1010.96 -170.88,-200.74 -807.1,-541.93 -837.25,-473.65 -2.51,5.67 -13.87,-16.03 -17.28,-20.6 -126.51,-169.78 -67.08,-140.4 -245.15,-256.49 -445.97,-290.76 -1114.87,-233.82 -1458.42,-6.15 -275.79,182.77 -208.06,520.92 -350.06,858.32 -129.03,306.56 -604.53,87.96 -963.99,245.47 -518.51,227.18 -222.17,425.36 -546.07,661.74 -340.87,248.76 -626.36,92.8 -958.43,251.07 -131.29,62.57 -203.96,170.9 -345.2,258.02 -277.43,171.12 -583.11,228.19 -903.77,300.68 -219.15,49.55 -375.34,53.38 -495.91,140.93l8300.58 5.25z"/>
  <path class="fil5" d="M18554.6 17725.48l6612.76 0c-182.23,-352.75 -182.02,-244.41 -1267.3,-248.81 -322.94,-480.4 -1509.8,-1718.74 -1851.54,-2196.9l-1421.23 -1650.56c-67.38,0 -54.79,18.03 -47.08,-45.6l-27.25 -45.4 -24.18 -46.24c-37.33,65.81 -52.63,-102.71 -19.97,125.69l96.63 400.54c44.65,191.79 89.19,368.26 130.58,548.94 81.96,357.69 178.3,706.08 245.17,1060.97 -170.62,178.44 -724.5,432.23 -972.98,610.36l-36.12 875.39c-97.63,-49.95 -215.18,-325.45 -279.45,-437.14 -198.37,-344.83 -626.17,-1202.09 -808.38,-1408.69l242.12 2415.96c-184.85,-1.1 -405.34,-44.24 -571.78,41.49z"/>
  <path class="fil5" d="M17596.41 5237.4l-24.69 38.28c-106.13,241.8 -384.82,486.21 -515.91,1016.6 -56.6,228.98 -66.06,460.54 -46.1,698.82 9.95,118.53 26.51,224.55 48.32,339.6 40.48,213.52 29.84,184.37 106.93,258.32 -101.76,-333.37 34.2,-753.12 47.19,-1097.23l-98.62 -106.35c94.8,-80.13 85.75,-51.08 234.68,-98.72 13.09,223.24 80.35,441.86 171.39,619.92 101.87,199.25 213.96,211.27 428.87,313.55 169.71,80.79 328.07,162.57 499.82,246.39 94.29,46.01 165.45,82.49 261.15,128.59 115,55.38 151.93,64.2 240.88,134.61l298.22 1427.11c-360.39,-11.11 -578.29,-78.13 -863.53,-198.78 -438.33,-185.44 -397.81,-133.09 -566.44,-391.74 -23.89,-36.64 -30.22,-40.21 -47.35,-58.51 17.26,-73.24 37.95,-65.96 -31.09,-49.82 18.1,-60.51 30.09,-48.53 -31.85,-39.45 15.3,-63.96 23.15,-42.24 -50.23,-42.24 17,60.33 -3.6,52.13 50.23,42.24 -12.7,62.88 -28.26,54.62 31.85,39.45 -17.29,66.16 -33.5,54.11 31.09,49.82 66.22,130.17 171.3,191.11 233.26,328.11l-313.57 -6.24c117.99,80.6 234.7,42.99 390.3,35.79 220.04,397.64 715.11,522.37 766.59,721.94l-1264.7 942.52c-6.67,3.95 -18.07,11.33 -26.93,17.28 182.73,180.94 273.24,1338.4 486.63,1627.67l442.82 587.66c43.41,62.69 44.85,92.1 93.56,155.8 120.28,157.26 232.46,254.66 336.92,468.14l588.17 7.47c-118.48,-282.94 -843.28,-1489.94 -860.85,-1607.4 -42.26,-282.51 265.62,-1839.7 204.38,-2199.14 181.95,5 231.22,101.44 410.49,173.71l105.68 -189.16 7.83 -218.22c125.89,-23.03 242.96,-45.63 350.51,4.71l-11.54 194.73 21.51 56.03 22.97 -49.04c63.81,13.82 49.69,28.39 49.69,-34.35 -69.99,-12.61 -59.95,-31.25 -49.69,34.35 56.66,-316.31 -33.07,-229.04 200.75,-391.83 -267.29,2.79 -186.69,-35.35 -240.33,-309.87 -26.21,-134.21 -57.11,-276.24 -81.47,-413.19 -50.99,-286.66 -114.42,-567.86 -157.24,-851.24 54.54,-44.6 -79.81,-97.1 81.72,-18.58 -272,-432.12 -5.96,-254.03 -308.3,-481.41l-322.86 -282.14c-39.09,-34.48 -16.88,-16.8 -55.64,-53.02 -3.81,-3.56 -16.14,-5.99 -18.89,-17.03 -2.74,-11.08 -12.55,-11.47 -19.04,-16.96l-320.58 -245.71c-790.6,-645.28 -341.3,-634.29 -1045.04,-592.67 51.03,-248.68 248.39,-344.54 369.66,-509.83 -31.7,-69.71 13.57,-28.58 -73.3,-100.69 -43.06,-35.75 -71.34,-45.52 -127.97,-77.17l-40.31 38.52z"/>
  <path class="fil6" d="M15237.12 10627.71c-3.77,7.26 -9.97,16.92 -12.53,21.11l-40.46 63.22c-30.75,62.34 -29.12,38.22 -36.28,116.12 -20.16,219.41 165.85,417.44 230.76,631.91l20.64 66.15 588.85 1318.38c102.9,99.93 482.77,1045.03 549.95,1182.98l-39.3 57.7c4.97,-19.39 -83.53,-23.05 81.49,-27.86 23.59,-0.7 104.74,9.4 133.5,12.61 96.53,10.79 190.95,19.34 287.95,27.4l210.59 5.09c-61.71,-286.93 -174.33,-530.82 -258.55,-841.4 -62.08,-228.92 -216.78,-622.36 -236.02,-827.35l-31.76 -72.63 -370.66 -1273.78c146.9,-107.43 456.62,-194.77 649.4,-265.74 225.49,-83.01 408.98,-196.77 591.48,-274.36 8.86,-5.95 20.26,-13.33 26.93,-17.28l1264.7 -942.52c-51.48,-199.57 -546.55,-324.3 -766.59,-721.94 -155.6,7.2 -272.31,44.81 -390.3,-35.79l-259.38 -30.62 -101.93 -10.59 -60.52 476.36c-46.06,82.67 -1727.53,1132.06 -2031.96,1362.83z"/>
  <path class="fil1" d="M14802.7 7302.97c219.1,20.92 26.47,-24.59 196.26,96.52 70.72,50.45 99.87,61.69 171.25,118.63l294.26 76.57 -14.27 289.9 -280.77 -67.41 -307.05 16.61 374.74 2793.92c304.43,-230.77 1985.9,-1280.16 2031.96,-1362.83l60.52 -476.36 101.93 10.59c-253.21,-156.64 -62.29,-122.04 -173.69,-342.79l-2.72 90.36 -1807.76 -452.13 2.84 -209.96 38.42 -301.39 1329.83 170.7c38.36,-137.35 93.07,-245.96 176.13,-357.46 -65.17,-187.24 -167.08,-403.68 -166.96,-626.88 -104.55,-20.05 -40.24,22.98 -108.37,-64.93 -16.4,-21.14 -34.51,-72.12 -41.98,-81.29 -752.05,-62.02 -1493.13,-334.57 -2058.18,-613.45l183.61 1293.08z"/>
  <path class="fil6" d="M17164.96 7589.02l-20.2 45.62 54.75 53.77c29.7,163.01 118.88,253.76 220.42,384.52 75.5,97.21 134.82,233.8 238.12,303.42 73.38,0 65.53,-21.72 50.23,42.24 61.94,-9.08 49.95,-21.06 31.85,39.45 69.04,-16.14 48.35,-23.42 31.09,49.82 17.13,18.3 23.46,21.87 47.35,58.51 168.63,258.65 128.11,206.3 566.44,391.74 285.24,120.65 503.14,187.67 863.53,198.78l-298.22 -1427.11c-88.95,-70.41 -125.88,-79.23 -240.88,-134.61 -95.7,-46.1 -166.86,-82.58 -261.15,-128.59 -171.75,-83.82 -330.11,-165.6 -499.82,-246.39 -214.91,-102.28 -327,-114.3 -428.87,-313.55 -91.04,-178.06 -158.3,-396.68 -171.39,-619.92 -148.93,47.64 -139.88,18.59 -234.68,98.72l98.62 106.35c-12.99,344.11 -148.95,763.86 -47.19,1097.23z"/>
  <path class="fil1" d="M16685.95 12361.14l31.76 72.63c329.88,-36.51 177.88,-210.58 585.29,-114.9 186.93,43.9 480.2,105.04 597.61,211.82l742.34 861.23 273.15 -5.39c-104.46,-213.48 -216.64,-310.88 -336.92,-468.14 -48.71,-63.7 -50.15,-93.11 -93.56,-155.8l-442.82 -587.66c-213.39,-289.27 -303.9,-1446.73 -486.63,-1627.67 -182.5,77.59 -365.99,191.35 -591.48,274.36 -192.78,70.97 -502.5,158.31 -649.4,265.74l370.66 1273.78z"/>
  <path class="fil7" d="M16752.07 6082.32c-46.29,-108.94 -40.59,-163.77 -20.38,-254.25 90.37,-81.12 104.39,-39.42 157.07,-149l-14.48 -30.27c-90.72,-160.36 -162.85,-241.4 -262.39,-345.27l-335.73 -77.24 -1714.4 278.92 57.33 504.68c565.05,278.88 1306.13,551.43 2058.18,613.45l-16.78 -160.44c51.39,131.62 82.82,153.74 178.91,209.09 -21.44,-158.57 -16.71,-361.37 50.09,-508.55 56.35,12.3 40.84,20.63 32.21,-39.43 63.6,13.92 53.44,29.01 41.9,-32.95 58.07,13.04 46.6,24.56 35.26,-33.72 65.93,11.96 47.94,20.15 26.47,-46.53 6.43,-6.62 20.93,-26.8 18.43,-20.69 -1.83,4.45 -3.15,-16.48 -5.86,-19.29 -4.72,-4.88 -20.18,-11.77 -30.14,-17.89l17.57 57.87 -63.05 -65.01c-78.54,-28.61 -61.26,-45.23 -61.26,35.88 99.78,7.26 67.62,-18.52 97.84,75.66 -57.11,-10.49 -46.33,-22.71 -35.26,33.72 -62.06,-12.46 -51.63,-27.28 -41.9,32.95 -61.61,-15.53 -46.36,-24.29 -32.21,39.43l-146.13 97.2c-2.39,-5.55 -11.36,23.59 -25.75,22.27l34.46 -200.59z"/>
  <path class="fil8" d="M17506.9 5030.55l33.16 131.31 96.66 37.02c-64.17,-22.39 -47.17,-30.91 -40.31,38.52l-24.69 38.28 24.69 -38.28 40.31 -38.52c56.63,31.65 84.91,41.42 127.97,77.17 86.87,72.11 41.6,30.98 73.3,100.69 130.98,73.08 307.69,319.72 422.56,477.28l91.76 89.57c204.7,-173.8 212.19,-350.48 538.06,-447.21 283.99,-84.29 584.66,-12.69 861.88,43.43 61.36,-108.27 -28.72,-7.78 75.81,-103l286.37 -211.79c124.55,-105.08 199.11,-214.07 346.82,-304.77l-37.42 -60.53 -204.41 -35c-519.47,-11.09 -878.99,-49.2 -1411.99,18.57 -436.76,55.53 -873.42,112.7 -1300.53,187.26z"/>
  <path class="fil4" d="M12474.34 8675.98c-187.25,28.97 -251.44,19.97 -426.65,73.6 -91.2,373.17 -150.82,158.52 -427.27,283.01 -179.48,80.83 27.82,67.75 -357.5,173.7l2915.88 72.86c-7.63,-14.43 -20.56,-33.87 -24.08,-27.12 -4.01,7.7 -29.43,-23.1 -42.21,-39.48 -121.34,-155.45 10.81,-160 -172.25,-222.83 -122.12,-41.91 -298.41,-46.27 -434.26,-57.42 122.85,-383.66 -87.17,-409.69 -236.68,-480.4 -103.74,-49.07 -253.73,-282.92 -606.34,-153.89 -155.48,56.88 -142.31,198.78 -188.64,377.97z"/>
  <path class="fil6" d="M19755.25 9560.22c-10.26,-65.6 -20.3,-46.96 49.69,-34.35 172.66,-69.39 350.31,-276.44 493.12,-419.02 152.35,-152.08 241.02,-335.84 532.27,-378.01 172.51,-96.56 22.36,0.08 97.6,-90.4 -209.98,-247.78 -314.06,-437.3 -569.69,-626.57 -138.85,-102.8 -623.06,-400.75 -799.56,-436.36 -161.53,-78.52 -27.18,-26.02 -81.72,18.58 42.82,283.38 106.25,564.58 157.24,851.24 24.36,136.95 55.26,278.98 81.47,413.19 53.64,274.52 -26.96,312.66 240.33,309.87 -233.82,162.79 -144.09,75.52 -200.75,391.83z"/>
  <path class="fil9" d="M16276.16 5226.29l335.73 77.24c99.54,103.87 171.67,184.91 262.39,345.27l14.48 30.27 513.41 -356.91c100.72,-76.42 121.3,-87.75 137.89,-160.3l-33.16 -131.31 -70.02 -179.34 -109.57 -321.98c-234.62,-6.08 -86.1,68.58 -284.08,179.94l-132.9 -30.07c48.19,-92.05 60.51,-72.24 105.05,-191.9 -94.17,-61.62 -89.33,-37.34 -146.47,-131.79 60.05,-34.01 86.86,-48.17 146.88,-93.84 93.97,-71.52 75.71,-29.25 104.89,-151.24 -105.88,-159.11 -343.49,-116.24 -568.36,-107.77 -97.11,267.34 -87.68,318.64 -264.48,453.09l-116.44 116.81c25.73,100.46 31.09,79.45 91.33,140.27 3.72,3.76 15.07,24.23 17.77,18.34 2.7,-5.86 11.86,12.24 16.81,19.13 -33.93,193.69 -79.47,286.41 -21.15,476.09z"/>
  <path class="fil6" d="M15450.2 7884.59l-2.84 209.96 1807.76 452.13 2.72 -90.36 -114.33 -661.71c-29.16,-43.09 4.09,35.31 -45.47,-78.18 -14.42,-33.03 -15.25,-57.06 -23.2,-88.42l-80.26 -231.57c-83.06,111.5 -137.77,220.11 -176.13,357.46l-1329.83 -170.7 -38.42 301.39z"/>
  <path class="fil2" d="M14451.14 5899.9l162.95 1408.89 2.55 449.93 -2.55 -449.93 188.61 -5.82 -183.61 -1293.08 -57.33 -504.68 -17.62 -224.9 -485.66 -3768.61 -54.77 -388.69c-27.16,-94.91 -30.1,-192.05 -45.1,-290.87 -21.3,-140.35 -15.33,-156.77 -133.64,-156.99 -9.23,19.26 -47.83,-17.84 -26.31,199.71 4.95,50.05 18.3,119.86 25.49,172.77 13.27,97.49 24.16,196.16 37.31,295.98l589.68 4556.29z"/>
  <path class="fil6" d="M16552.32 4002.56c224.87,-8.47 462.48,-51.34 568.36,107.77 -29.18,121.99 -10.92,79.72 -104.89,151.24 -60.02,45.67 -86.83,59.83 -146.88,93.84 57.14,94.45 52.3,70.17 146.47,131.79 -44.54,119.66 -56.86,99.85 -105.05,191.9l132.9 30.07c91.82,-97.96 63.19,-105.31 98.46,-147.36 47.51,-56.62 -27.35,-22.82 61.23,-49.66 234.37,-71 52.2,-8.95 124.39,17.08l109.57 321.98c522.03,20.17 571.26,-838.54 245.17,-1058.49 -336.19,-226.78 -960.92,-408.93 -1243.52,-26.97l113.79 236.81z"/>
  <path class="fil9" d="M23876.39 6433.25l5.99 104.79c-239.36,-78.46 -475.97,-195.03 -751.72,-284.48l85.66 51.9c-97.41,408.08 -672.52,1954.85 271.98,2080.58 -57.76,-122.55 -87.23,-107.12 -150.08,-226.33 -287.2,-544.66 396.27,-985.05 553.39,-1182.97 161.62,-203.6 42.42,-338.64 -15.22,-543.49z"/>
  <path class="fil4" d="M16888.76 5679.07l-14.48 -30.27 14.48 30.27c-52.68,109.58 -66.7,67.88 -157.07,149 -20.21,90.48 -25.91,145.31 20.38,254.25 64.56,-10.12 121.94,4.7 148.95,-100.64 0,-81.11 -17.28,-64.49 61.26,-35.88l45.48 7.14c9.96,6.12 25.42,13.01 30.14,17.89 2.71,2.81 4.03,23.74 5.86,19.29 2.5,-6.11 -12,14.07 -18.43,20.69 21.47,66.68 39.46,58.49 -26.47,46.53 11.34,58.28 22.81,46.76 -35.26,33.72 11.54,61.96 21.7,46.87 -41.9,32.95 8.63,60.06 24.14,51.73 -32.21,39.43 -66.8,147.18 -71.53,349.98 -50.09,508.55l-11.78 97.57c-0.12,223.2 101.79,439.64 166.96,626.88l80.26 231.57 36.54 76.88c58.1,-45.54 12.19,4.93 33.38,-70.25l20.2 -45.62c-77.09,-73.95 -66.45,-44.8 -106.93,-258.32 -21.81,-115.05 -38.37,-221.07 -48.32,-339.6 -19.96,-238.28 -10.5,-469.84 46.1,-698.82 131.09,-530.39 409.78,-774.8 515.91,-1016.6l24.69 -38.28c-6.86,-69.43 -23.86,-60.91 40.31,-38.52l-96.66 -37.02c-16.59,72.55 -37.17,83.88 -137.89,160.3l-513.41 356.91zm254.75 2115.54l114.33 661.71c111.4,220.75 -79.52,186.15 173.69,342.79l259.38 30.62 313.57 6.24c-61.96,-137 -167.04,-197.94 -233.26,-328.11 -64.59,4.29 -48.38,16.34 -31.09,-49.82 -60.11,15.17 -44.55,23.43 -31.85,-39.45 -53.83,9.89 -33.23,18.09 -50.23,-42.24 -103.3,-69.62 -162.62,-206.21 -238.12,-303.42 -101.54,-130.76 -190.72,-221.51 -220.42,-384.52 -79.06,48.01 -55.57,-33.1 -56,106.2z"/>
  <path class="fil10" d="M18260.55 5854.02l245.93 305.24c126.67,-245.88 409.51,-487 848.87,-378.99 540.63,194.66 677.62,273.83 1283.32,90.07 160.49,-82.04 207.74,-58.23 321.09,-160.33l-395.86 -195.93c-293.63,-7.9 -435.06,83.09 -811.65,25.73 -277.22,-56.12 -577.89,-127.72 -861.88,-43.43 -325.87,96.73 -333.36,273.41 -538.06,447.21l-91.76 -89.57z"/>
  <path class="fil11" d="M14544.14 5280.31c110.27,-678.2 148.38,-1372.31 57.27,-2075.38 -63.18,-487.45 -273.12,-1402.26 -542.93,-1693.23l485.66 3768.61z"/>
  <path class="fil9" d="M20461.25 4920.25l102.65 593.83 395.86 195.93c-113.35,102.1 -160.6,78.29 -321.09,160.33l125.84 693c51.94,-310 214.65,-527.67 362.75,-748.78 175.86,-262.59 255.36,-388.39 378.39,-708.87 -110.19,-61.45 -1083.35,-266.58 -1286.23,-280.97l204.41 35 37.42 60.53z"/>
  <path class="fil12" d="M16498.75 14085.28l-628.58 336.69c-160.76,69.09 -125.3,-9.41 -137.92,139.68 126.45,69.57 1226.54,119.63 1345.62,71.72 86.41,-155.23 -33.05,-366.48 -76.18,-535.94 -97,-8.06 -191.42,-16.61 -287.95,-27.4 -28.76,-3.21 -109.91,-13.31 -133.5,-12.61 -165.02,4.81 -76.52,8.47 -81.49,27.86z"/>
  <path class="fil6" d="M18833.95 6724.95c-76.13,-184.73 -202.42,-285.38 -245.93,-458.78 -59.79,3.4 -36.45,14.15 -47.68,-58.3l-33.86 -48.61 -245.93 -305.24c-114.87,-157.56 -291.58,-404.2 -422.56,-477.28 -121.27,165.29 -318.63,261.15 -369.66,509.83 703.74,-41.62 254.44,-52.61 1045.04,592.67l320.58 245.71z"/>
  <path class="fil1" d="M15988.1 12844.6l-588.85 -1318.38c-62.06,0 -38.18,10.07 -20.64,-66.15 -48.15,58 -46.18,61.2 -28,197.37 9.03,67.58 19.81,135.45 28.8,203.43 35.29,266.93 110.46,1011.15 165.73,1175.15 29.34,11.73 6.01,18.71 55.39,8.96 4.95,-0.98 15.6,-4.95 20.96,-6.68 6.01,-1.95 16.06,-7.68 22.37,-10.36 44.03,-18.7 68.43,-37.58 117.2,-63.16 91.3,-47.87 136.08,-71.38 227.04,-120.18z"/>
  <path class="fil9" d="M19363.97 9572.01l-105.68 189.16c-21.13,155.85 35.92,308.96 101.64,411.53 313.89,22.26 -35.92,-40.78 435.03,-78.14l-62.68 -485.3 -21.51 -56.03 -314.46 4.7 -32.34 14.08z"/>
  <path class="fil1" d="M19752.25 5539.81c376.59,57.36 518.02,-33.63 811.65,-25.73l-102.65 -593.83c-147.71,90.7 -222.27,199.69 -346.82,304.77l-286.37 211.79c-104.53,95.22 -14.45,-5.27 -75.81,103z"/>
  <path class="fil9" d="M14616.64 7758.72l10.83 74.02 75.32 1.6 159.59 -0.55 307.05 -16.61 0.78 -299.06c-71.38,-56.94 -100.53,-68.18 -171.25,-118.63 -169.79,-121.11 22.84,-75.6 -196.26,-96.52l-188.61 5.82 2.55 449.93z"/>
  <path class="fil13" d="M18506.48 6159.26l33.86 48.61c79.11,0 63.12,-19.36 47.68,58.3 226.09,-10.29 546.38,-322.25 750.47,-401l16.86 -84.9c-439.36,-108.01 -722.2,133.11 -848.87,378.99z"/>
  <polygon class="fil4" points="15169.43,7817.18 15450.2,7884.59 15464.47,7594.69 15170.21,7518.12 "/>
  <polygon class="fil4" points="19396.31,9557.93 19710.77,9553.23 19722.31,9358.5 19377.32,9368.19 "/>
  <path class="fil10" d="M17025.33 6010.81l-17.57 -57.87 -45.48 -7.14 63.05 65.01zm-273.26 71.51l-34.46 200.59c14.39,1.32 23.36,-27.82 25.75,-22.27l146.13 -97.2c-14.15,-63.72 -29.4,-54.96 32.21,-39.43 -9.73,-60.23 -20.16,-45.41 41.9,-32.95 -11.07,-56.43 -21.85,-44.21 35.26,-33.72 -30.22,-94.18 1.94,-68.4 -97.84,-75.66 -27.01,105.34 -84.39,90.52 -148.95,100.64z"/>
  <path class="fil10" d="M16677.27 6623.34c7.47,9.17 25.58,60.15 41.98,81.29 68.13,87.91 3.82,44.88 108.37,64.93l11.78 -97.57c-96.09,-55.35 -127.52,-77.47 -178.91,-209.09l16.78 160.44z"/>
  <path class="fil14" d="M19363.97 9572.01l32.34 -14.08 -18.99 -189.74 344.99 -9.69c-107.55,-50.34 -224.62,-27.74 -350.51,-4.71l-7.83 218.22z"/>
  <path class="fil15" d="M17043.23 4709.17c197.98,-111.36 49.46,-186.02 284.08,-179.94 -72.19,-26.03 109.98,-88.08 -124.39,-17.08 -88.58,26.84 -13.72,-6.96 -61.23,49.66 -35.27,42.05 -6.64,49.4 -98.46,147.36z"/>
  <path class="fil2" d="M17143.51 7794.61c0.43,-139.3 -23.06,-58.19 56,-106.2l-54.75 -53.77c-21.19,75.18 24.72,24.71 -33.38,70.25l-36.54 -76.88c7.95,31.36 8.78,55.39 23.2,88.42 49.56,113.49 16.31,35.09 45.47,78.18z"/>
  <path class="fil16" d="M20830.33 8728.84l118.96 -9.72c37.08,-164.72 9.32,-14.17 -21.36,-80.68 -75.24,90.48 74.91,-6.16 -97.6,90.4z"/>
 </g>
</svg>
