<?xml version="1.0" encoding="UTF-8"?>
<svg xmlns="http://www.w3.org/2000/svg" xmlns:xlink="http://www.w3.org/1999/xlink" width="2439.1631pt" height="778.9435pt" viewBox="0 0 2439.1631 778.9435" version="1.1">
<g id="surface1">
<path style=" stroke:none;fill-rule:evenodd;fill:rgb(50.196838%,50.98114%,52.157593%);fill-opacity:1;" d="M 214.296875 747.109375 C 214.296875 751.671875 213.542969 755.875 212.007813 759.648438 C 210.472656 763.417969 208.238281 766.65625 205.300781 769.355469 C 202.367188 772.03125 198.703125 774.121094 194.339844 775.597656 C 189.949219 777.050781 184.886719 777.789063 179.097656 777.789063 C 174.839844 777.789063 170.71875 777.304688 166.789063 776.363281 C 162.828125 775.394531 159.382813 774.199219 156.445313 772.746094 L 156.445313 755.007813 C 157.765625 756.054688 159.300781 757.023438 161.078125 757.890625 C 162.828125 758.78125 164.714844 759.570313 166.707031 760.234375 C 168.699219 760.894531 170.773438 761.429688 172.875 761.789063 C 174.976563 762.167969 177.050781 762.347656 179.097656 762.347656 C 180.847656 762.347656 182.652344 762.042969 184.511719 761.457031 C 186.394531 760.84375 188.066406 759.851563 189.519531 758.476563 C 191 757.074219 192.210938 755.238281 193.15625 752.96875 C 194.097656 750.726563 194.582031 747.925781 194.582031 744.585938 L 194.582031 693.851563 L 157.253906 693.851563 L 157.253906 678.714844 L 214.296875 678.714844 Z M 1202.667969 351.050781 C 1204.460938 334.765625 1198.183594 327.921875 1187.578125 317.15625 C 1179.414063 308.867188 1171.1875 300.632813 1163.113281 292.253906 C 1154.976563 283.816406 1146.738281 275.476563 1138.597656 267.035156 C 1130.265625 258.398438 1122.566406 248.261719 1110.074219 245.898438 C 1095.171875 243.085938 1086.207031 250.085938 1076.761719 260.320313 C 1061.695313 276.644531 1041.414063 294.726563 1027.523438 310.496094 C 1018.394531 320.851563 1009.535156 325.132813 1007.488281 340.238281 C 1005.253906 356.726563 1010.871094 364.09375 1021.902344 374.910156 C 1030.390625 383.230469 1038.019531 391.707031 1046.304688 400.113281 C 1054.523438 408.449219 1063.25 416.59375 1071.316406 425.023438 C 1080.425781 434.539063 1085.636719 444.453125 1099.949219 445.785156 C 1116.914063 447.359375 1123.34375 443.441406 1134.117188 431.46875 C 1141.710938 423.027344 1150.515625 414.640625 1158.523438 406.476563 C 1166.769531 398.074219 1174.796875 389.410156 1183.160156 381.132813 C 1192.875 371.523438 1201.054688 365.707031 1202.667969 351.050781 Z M 1368.019531 497.121094 C 1370.261719 476.761719 1362.414063 468.210938 1349.160156 454.753906 C 1338.953125 444.390625 1328.671875 434.097656 1318.578125 423.625 C 1308.40625 413.078125 1298.109375 402.652344 1287.929688 392.101563 C 1277.511719 381.304688 1267.890625 368.628906 1252.273438 365.679688 C 1233.648438 362.160156 1222.441406 370.914063 1210.632813 383.707031 C 1191.800781 404.109375 1166.449219 426.714844 1149.082031 446.425781 C 1137.671875 459.371094 1126.597656 464.722656 1124.039063 483.605469 C 1121.246094 504.214844 1128.269531 513.425781 1142.058594 526.945313 C 1152.671875 537.347656 1162.207031 547.945313 1172.5625 558.453125 C 1182.835938 568.871094 1193.742188 579.050781 1203.828125 589.589844 C 1215.210938 601.484375 1221.730469 613.878906 1239.617188 615.539063 C 1260.828125 617.511719 1268.863281 612.613281 1282.328125 597.644531 C 1291.824219 587.09375 1302.828125 576.613281 1312.839844 566.40625 C 1323.144531 555.90625 1333.179688 545.070313 1343.636719 534.726563 C 1355.78125 522.710938 1366.003906 515.441406 1368.019531 497.121094 Z M 1084.945313 496.351563 C 1087.1875 475.992188 1079.339844 467.441406 1066.085938 453.984375 C 1055.878906 443.621094 1045.597656 433.324219 1035.503906 422.855469 C 1025.332031 412.304688 1015.035156 401.878906 1004.855469 391.332031 C 994.4375 380.535156 984.816406 367.859375 969.199219 364.910156 C 950.574219 361.390625 939.367188 370.140625 927.558594 382.933594 C 908.726563 403.335938 883.375 425.941406 866.007813 445.652344 C 854.597656 458.601563 843.523438 463.953125 840.964844 482.832031 C 838.175781 503.445313 845.195313 512.65625 858.984375 526.171875 C 869.597656 536.578125 879.132813 547.171875 889.492188 557.679688 C 899.761719 568.101563 910.667969 578.28125 920.753906 588.816406 C 932.140625 600.710938 938.65625 613.105469 956.542969 614.769531 C 977.753906 616.738281 985.789063 611.839844 999.253906 596.875 C 1008.75 586.320313 1019.753906 575.839844 1029.765625 565.636719 C 1040.074219 555.132813 1050.105469 544.300781 1060.5625 533.957031 C 1072.707031 521.941406 1082.929688 514.667969 1084.945313 496.351563 Z M 1086.488281 208.648438 C 1088.730469 188.289063 1080.882813 179.738281 1067.628906 166.28125 C 1057.421875 155.917969 1047.140625 145.621094 1037.046875 135.152344 C 1026.875 124.601563 1016.578125 114.179688 1006.398438 103.628906 C 995.980469 92.832031 986.359375 80.15625 970.742188 77.207031 C 952.117188 73.6875 940.910156 82.441406 929.101563 95.234375 C 910.269531 115.636719 884.917969 138.242188 867.550781 157.949219 C 856.140625 170.898438 845.066406 176.25 842.507813 195.132813 C 839.714844 215.742188 846.738281 224.953125 860.527344 238.472656 C 871.140625 248.875 880.675781 259.46875 891.03125 269.980469 C 901.304688 280.398438 912.210938 290.578125 922.296875 301.117188 C 933.683594 313.011719 940.199219 325.40625 958.085938 327.066406 C 979.296875 329.039063 987.332031 324.140625 1000.796875 309.171875 C 1010.292969 298.621094 1021.296875 288.136719 1031.308594 277.933594 C 1041.613281 267.429688 1051.648438 256.597656 1062.105469 246.253906 C 1074.25 234.238281 1084.472656 226.964844 1086.488281 208.648438 Z M 1366.480469 208.648438 C 1368.71875 188.289063 1360.871094 179.738281 1347.617188 166.28125 C 1337.410156 155.917969 1327.128906 145.621094 1317.035156 135.152344 C 1306.863281 124.601563 1296.566406 114.179688 1286.386719 103.628906 C 1275.96875 92.832031 1266.347656 80.15625 1250.730469 77.207031 C 1232.105469 73.6875 1220.898438 82.441406 1209.089844 95.234375 C 1190.257813 115.636719 1164.90625 138.242188 1147.539063 157.949219 C 1136.128906 170.898438 1125.054688 176.25 1122.496094 195.132813 C 1119.707031 215.742188 1126.726563 224.953125 1140.515625 238.472656 C 1151.128906 248.875 1160.664063 259.46875 1171.023438 269.980469 C 1181.292969 280.398438 1192.199219 290.578125 1202.285156 301.117188 C 1213.671875 313.011719 1220.1875 325.40625 1238.074219 327.066406 C 1259.285156 329.039063 1267.320313 324.140625 1280.785156 309.171875 C 1290.28125 298.621094 1301.285156 288.136719 1311.296875 277.933594 C 1321.605469 267.429688 1331.636719 256.597656 1342.09375 246.253906 C 1354.238281 234.238281 1364.460938 226.964844 1366.480469 208.648438 Z M 313 283.539063 C 311.925781 354.285156 311.917969 428.089844 219.332031 422.125 C 184.316406 419.867188 162.894531 407.363281 152.285156 372.933594 C 141.875 339.164063 142.800781 300.519531 142.632813 265.527344 C 142.492188 236.339844 144.476563 190.355469 157.070313 163.917969 C 172.492188 131.542969 203.828125 124.730469 237.136719 126.878906 C 272.78125 129.171875 292.941406 142.578125 303.644531 177.011719 C 313.355469 208.242188 313.496094 250.867188 313 283.539063 Z M 2070.011719 168.292969 C 2042.03125 155.46875 2005.644531 154.53125 1975.183594 152.433594 C 1942.863281 150.210938 1903.414063 151.234375 1871.386719 156.320313 C 1800.136719 167.636719 1775.738281 202.859375 1767.261719 272.066406 C 1760.832031 324.5625 1759.777344 425.101563 1778.421875 474.292969 C 1788.6875 501.375 1805.378906 519.214844 1832.199219 530.371094 C 1858.671875 541.382813 1898.148438 545.1875 1926.75 545.707031 C 1959.375 546.300781 1999.0625 545.339844 2031.117188 539.511719 C 2080.78125 530.480469 2071.914063 536.214844 2071.914063 470.230469 C 2071.914063 440.238281 2076.320313 431.316406 2056.035156 430.652344 C 2038.386719 430.074219 2019.175781 430.777344 2001.332031 430.777344 C 1982.929688 430.777344 1964.398438 430.558594 1946.011719 430.808594 C 1931.226563 431.007813 1914.929688 430.3125 1905.398438 416.984375 C 1891.292969 397.265625 1892.210938 342.785156 1894.617188 319.039063 C 1896.011719 305.28125 1897.589844 287.371094 1908.039063 277.101563 C 1920.398438 264.953125 1935.894531 266.335938 1951.820313 266.410156 C 1960.554688 266.453125 2054.628906 266.871094 2061.460938 266.125 C 2072.636719 264.902344 2072.148438 257.964844 2071.992188 248.503906 C 2071.65625 227.9375 2073.609375 183.5 2070.011719 168.292969 Z M 1510.558594 420.964844 C 1507.253906 394.578125 1515.148438 381.441406 1542.554688 380.265625 C 1554.28125 379.761719 1567.277344 380.285156 1579.152344 380.277344 C 1600.257813 380.257813 1596.445313 378.648438 1596.445313 399.863281 C 1596.445313 405.148438 1597.597656 432.792969 1595.015625 435.144531 C 1592.816406 437.148438 1567.734375 438.957031 1562.871094 439.59375 C 1546.882813 441.675781 1513.238281 442.40625 1510.558594 420.964844 Z M 1595.894531 302.191406 C 1575.410156 307.042969 1518.9375 302.878906 1483.996094 306.714844 C 1454.738281 309.929688 1421.957031 316.625 1403.066406 341.542969 C 1371.765625 382.824219 1373.585938 483.757813 1414.1875 519.003906 C 1438.453125 540.066406 1473.5625 542.273438 1504.039063 544.769531 C 1533.316406 547.167969 1586.460938 545.695313 1616.390625 543.40625 C 1634.40625 542.027344 1703.921875 535.777344 1717.273438 528.632813 C 1722.09375 526.050781 1722.742188 525.578125 1724.203125 520.460938 C 1728.476563 505.46875 1726.289063 494.800781 1726.34375 479.4375 L 1726.441406 305.820313 C 1726.523438 232.90625 1729.5625 179.75 1641.570313 159.582031 C 1592.28125 148.285156 1530.210938 150.570313 1479.28125 154.804688 C 1462.175781 156.230469 1445.34375 159.195313 1428.316406 161.402344 C 1403.109375 164.667969 1409.273438 180.90625 1409.625 201.144531 C 1409.785156 210.40625 1409.722656 220.15625 1409.675781 229.445313 C 1409.554688 254.738281 1402.667969 268.136719 1430.753906 266.84375 C 1454.765625 265.742188 1492.992188 266.199219 1517.425781 266.363281 C 1532.515625 266.460938 1560.371094 264.550781 1573.789063 268.238281 C 1591.980469 273.242188 1595.75 285.140625 1595.894531 302.191406 Z M 2219.070313 418.191406 C 2217.285156 408.851563 2218.742188 395.609375 2225.574219 388.566406 C 2231.554688 382.398438 2245.84375 380.222656 2254.0625 380.25 C 2266.269531 380.292969 2278.484375 380.230469 2290.691406 380.277344 C 2309.417969 380.351563 2305.699219 378.878906 2305.621094 420.683594 C 2305.585938 440.136719 2307.074219 435.25 2269.578125 439.710938 C 2253.277344 441.648438 2250.636719 440.230469 2236.640625 438.074219 C 2224.601563 436.214844 2221.160156 429.125 2219.070313 418.191406 Z M 2304.335938 302.207031 C 2287.238281 306.152344 2266.121094 304.476563 2248.300781 304.503906 C 2206.148438 304.574219 2139.269531 304.449219 2112.03125 341.121094 C 2091.800781 368.347656 2089.652344 403.136719 2090.972656 435.886719 C 2092.183594 465.90625 2099.589844 498.867188 2123.226563 519.335938 C 2146.972656 539.90625 2183.402344 542.679688 2213.320313 544.921875 C 2242.808594 547.128906 2295.6875 545.703125 2325.777344 543.441406 C 2344.914063 542.007813 2412.152344 536.320313 2426.441406 528.421875 C 2431.253906 525.761719 2431.816406 525.214844 2433.148438 520.050781 C 2437.125 504.65625 2434.871094 494.320313 2434.976563 478.722656 L 2435.097656 305.8125 C 2435.046875 273.859375 2438.164063 232.453125 2421.34375 204.011719 C 2405.660156 177.480469 2379.148438 166.097656 2350.265625 159.492188 C 2302.042969 148.46875 2238.007813 150.363281 2187.871094 154.753906 C 2170.789063 156.25 2153.925781 159.234375 2136.925781 161.367188 C 2111.796875 164.523438 2118.5 181.074219 2118.851563 201.15625 C 2119.011719 210.359375 2118.910156 220.1875 2118.898438 229.449219 C 2118.859375 254.726563 2111.289063 268.128906 2139.367188 266.84375 C 2163.359375 265.746094 2201.652344 266.199219 2226.078125 266.363281 C 2268.695313 266.644531 2303.957031 257.964844 2304.335938 302.207031 Z M 633.054688 381.542969 C 640.503906 380.496094 643.117188 380.277344 650.789063 380.285156 C 656.773438 380.292969 662.757813 380.273438 668.742188 380.269531 C 693.695313 380.265625 691.066406 378.644531 691.132813 394.871094 C 691.332031 445.28125 697.195313 434.589844 661.828125 438.871094 C 646.664063 440.707031 612.105469 443.878906 606.453125 424.785156 C 604.476563 418.105469 604.285156 399.042969 608.121094 393.144531 C 615.898438 381.1875 625.371094 382.621094 633.054688 381.542969 Z M 690.632813 302.554688 C 643.417969 310.96875 537.972656 288.875 497.542969 341.398438 C 478.324219 366.367188 475.09375 404.792969 476.789063 435.1875 C 478.460938 465.230469 484.855469 498.414063 508.714844 519.039063 C 533.269531 540.265625 567.550781 542.277344 598.332031 545.097656 C 610.636719 546.222656 667.761719 546.226563 684.421875 545.644531 C 706.582031 544.871094 797.226563 536.378906 812.015625 528.761719 C 819.3125 525.003906 820.328125 519.847656 821.277344 508.390625 C 822.054688 498.96875 821.035156 488.980469 821.070313 479.449219 L 821.179688 305.78125 C 821.175781 273.804688 824.300781 232.386719 807.355469 203.945313 C 775.382813 150.277344 683.503906 150.390625 628.683594 151.53125 C 584.992188 152.441406 564.617188 155.78125 522.8125 161.261719 C 497.75 164.550781 503.980469 181.027344 504.371094 201.144531 C 504.546875 210.328125 504.484375 220.210938 504.445313 229.433594 C 504.414063 237.210938 502.394531 251.238281 504.316406 258.101563 C 507.054688 267.882813 517 267.28125 525.324219 266.875 C 548.679688 265.734375 588.171875 266.195313 612.03125 266.363281 C 627.351563 266.472656 654.546875 264.5625 668.316406 268.296875 C 686.714844 273.285156 689.984375 285.527344 690.632813 302.554688 Z M 2.554688 307.953125 C 3.675781 369.773438 12.117188 454.46875 59.40625 499.542969 C 108.113281 545.972656 197.71875 548.65625 261.015625 545.0625 C 329.078125 541.199219 392.007813 525.992188 424.722656 460.304688 C 454.789063 399.929688 454.121094 307.757813 453.015625 241.394531 C 451.984375 179.605469 443.234375 94.988281 396.335938 49.773438 C 347.378906 2.570313 258.445313 1 194.683594 4.148438 C 126.636719 7.503906 63.757813 23.5 31.117188 88.941406 C 1 149.320313 1.351563 241.519531 2.554688 307.953125 Z M 2170.855469 678.71875 L 2190.980469 678.71875 L 2190.980469 776.265625 L 2170.855469 776.265625 Z M 2286.410156 727.03125 C 2286.410156 735.898438 2285.28125 743.542969 2283.054688 749.964844 C 2280.828125 756.359375 2277.777344 761.632813 2273.871094 765.789063 C 2269.96875 769.917969 2265.402344 772.972656 2260.179688 774.960938 C 2254.925781 776.949219 2249.34375 777.945313 2243.378906 777.945313 C 2229.492188 777.945313 2219.070313 773.6875 2212.085938 765.152344 C 2205.101563 756.613281 2201.609375 744.203125 2201.609375 727.945313 C 2201.609375 719.078125 2202.738281 711.433594 2204.964844 705.011719 C 2207.191406 698.589844 2210.246094 693.339844 2214.148438 689.1875 C 2218.054688 685.058594 2222.617188 682 2227.84375 680.011719 C 2233.09375 678.027344 2238.703125 677.03125 2244.644531 677.03125 C 2258.527344 677.03125 2268.949219 681.289063 2275.933594 689.800781 C 2282.917969 698.308594 2286.410156 710.71875 2286.410156 727.03125 Z M 2265.457031 727.945313 C 2265.457031 716.378906 2263.78125 707.738281 2260.453125 702.054688 C 2257.125 696.375 2251.65625 693.546875 2244.011719 693.546875 C 2240.1875 693.546875 2236.945313 694.285156 2234.25 695.761719 C 2231.554688 697.214844 2229.355469 699.378906 2227.59375 702.210938 C 2225.863281 705.0625 2224.570313 708.554688 2223.773438 712.734375 C 2222.976563 716.886719 2222.5625 721.652344 2222.5625 727.03125 C 2222.5625 738.597656 2224.238281 747.238281 2227.59375 752.917969 C 2230.949219 758.601563 2236.421875 761.429688 2244.011719 761.429688 C 2247.832031 761.429688 2251.105469 760.691406 2253.800781 759.214844 C 2256.519531 757.761719 2258.75 755.59375 2260.453125 752.765625 C 2262.183594 749.914063 2263.449219 746.421875 2264.246094 742.242188 C 2265.046875 738.089844 2265.457031 733.324219 2265.457031 727.945313 Z M 2087.507813 776.261719 L 2087.507813 678.714844 L 2121.523438 678.714844 C 2133.511719 678.714844 2142.476563 680.652344 2148.46875 684.523438 C 2154.464844 688.421875 2157.460938 694.285156 2157.460938 702.15625 C 2157.460938 704.578125 2157.160156 706.972656 2156.527344 709.269531 C 2155.921875 711.585938 2154.960938 713.726563 2153.667969 715.664063 C 2152.375 717.601563 2150.78125 719.308594 2148.828125 720.8125 C 2146.902344 722.289063 2144.621094 723.460938 2141.980469 724.300781 C 2144.621094 724.710938 2147.121094 725.5 2149.488281 726.671875 C 2151.878906 727.84375 2153.96875 729.347656 2155.757813 731.207031 C 2157.542969 733.09375 2158.972656 735.285156 2160.019531 737.832031 C 2161.0625 740.355469 2161.585938 743.183594 2161.585938 746.320313 C 2161.585938 756.285156 2157.984375 763.75 2150.808594 768.769531 C 2143.601563 773.765625 2133.210938 776.261719 2119.625 776.261719 Z M 2136.839844 705.34375 C 2136.839844 703.484375 2136.507813 701.828125 2135.875 700.324219 C 2135.214844 698.84375 2134.199219 697.570313 2132.769531 696.527344 C 2131.339844 695.480469 2129.496094 694.667969 2127.269531 694.105469 C 2125.042969 693.519531 2122.347656 693.238281 2119.160156 693.238281 L 2107.144531 693.238281 L 2107.144531 719.078125 L 2119.160156 719.078125 C 2122.402344 719.078125 2125.125 718.722656 2127.351563 717.984375 C 2129.578125 717.269531 2131.421875 716.277344 2132.851563 715 C 2134.28125 713.726563 2135.296875 712.273438 2135.902344 710.644531 C 2136.535156 708.988281 2136.839844 707.230469 2136.839844 705.34375 Z M 2121.027344 761.277344 C 2124.191406 761.277344 2126.96875 760.894531 2129.359375 760.15625 C 2131.75 759.417969 2133.757813 758.371094 2135.382813 757.074219 C 2137.003906 755.75 2138.214844 754.195313 2139.066406 752.382813 C 2139.890625 750.601563 2140.304688 748.6875 2140.304688 746.652344 C 2140.304688 742.421875 2138.597656 739.109375 2135.1875 736.738281 C 2131.75 734.34375 2126.527344 733.144531 2119.488281 733.144531 L 2107.144531 733.144531 L 2107.144531 761.277344 Z M 2058.910156 776.261719 L 2056.878906 721.09375 L 2056.117188 699.074219 L 2050.675781 713.929688 L 2038.117188 747.210938 L 2024.851563 747.210938 L 2013.621094 713.929688 L 2008.882813 699.074219 L 2008.265625 720.660156 L 2006.324219 776.261719 L 1988.328125 776.261719 L 1993.886719 678.714844 L 2017.855469 678.714844 L 2027.707031 706.464844 L 2032.441406 722.109375 L 2037.207031 707.355469 L 2047.675781 678.714844 L 2072.054688 678.714844 L 2077.613281 776.261719 Z M 1958.515625 776.261719 L 1952.738281 756.996094 L 1915.949219 756.996094 L 1910.007813 776.261719 L 1890.347656 776.261719 L 1921.503906 678.714844 L 1949.21875 678.714844 L 1980.429688 776.261719 Z M 1934.5625 696.5 L 1920.542969 742.011719 L 1948.230469 742.011719 Z M 1882.632813 772.4375 C 1877.957031 774.199219 1873.445313 775.496094 1869.074219 776.363281 C 1864.675781 777.203125 1860.136719 777.636719 1855.410156 777.636719 C 1847.847656 777.636719 1841.136719 776.59375 1835.335938 774.527344 C 1829.507813 772.464844 1824.585938 769.40625 1820.597656 765.304688 C 1816.585938 761.226563 1813.558594 756.15625 1811.496094 750.117188 C 1809.433594 744.078125 1808.390625 737.042969 1808.390625 729.015625 C 1808.390625 720.8125 1809.515625 713.496094 1811.773438 707.101563 C 1814.027344 700.707031 1817.242188 695.304688 1821.421875 690.894531 C 1825.628906 686.484375 1830.71875 683.121094 1836.683594 680.804688 C 1842.679688 678.484375 1849.414063 677.339844 1856.867188 677.339844 C 1859.285156 677.339844 1861.539063 677.390625 1863.65625 677.492188 C 1865.804688 677.59375 1867.867188 677.769531 1869.898438 678.050781 C 1871.960938 678.332031 1874.023438 678.6875 1876.113281 679.121094 C 1878.203125 679.582031 1880.375 680.167969 1882.632813 680.855469 L 1882.632813 699.050781 C 1878.066406 697.0625 1873.722656 695.660156 1869.597656 694.820313 C 1865.472656 693.976563 1861.707031 693.546875 1858.324219 693.546875 C 1853.347656 693.546875 1849.085938 694.386719 1845.539063 696.042969 C 1841.992188 697.722656 1839.078125 700.042969 1836.792969 703.074219 C 1834.539063 706.082031 1832.863281 709.648438 1831.789063 713.828125 C 1830.71875 717.984375 1830.167969 722.542969 1830.167969 727.511719 C 1830.167969 732.789063 1830.71875 737.503906 1831.816406 741.683594 C 1832.917969 745.835938 1834.621094 749.351563 1836.933594 752.230469 C 1839.242188 755.136719 1842.183594 757.328125 1845.785156 758.855469 C 1849.359375 760.359375 1853.648438 761.125 1858.570313 761.125 C 1860.332031 761.125 1862.253906 760.972656 1864.316406 760.640625 C 1866.378906 760.308594 1868.46875 759.902344 1870.585938 759.367188 C 1872.730469 758.855469 1874.820313 758.21875 1876.882813 757.507813 C 1878.945313 756.792969 1880.871094 756.054688 1882.632813 755.316406 Z M 1721.453125 776.261719 L 1721.453125 678.714844 L 1741.582031 678.714844 L 1741.582031 760.511719 L 1786.128906 760.511719 L 1786.128906 776.261719 Z M 1642.429688 776.261719 L 1642.429688 678.714844 L 1705.78125 678.714844 L 1705.78125 694.308594 L 1662.558594 694.308594 L 1662.558594 718.46875 L 1703.800781 718.46875 L 1703.800781 733.605469 L 1662.558594 733.605469 L 1662.558594 760.667969 L 1705.78125 760.667969 L 1705.78125 776.261719 Z M 1604.175781 746.753906 C 1604.175781 752.078125 1603.105469 756.691406 1600.988281 760.617188 C 1598.871094 764.566406 1595.898438 767.800781 1592.105469 770.375 C 1588.285156 772.921875 1583.746094 774.835938 1578.496094 776.082031 C 1573.214844 777.332031 1567.496094 777.945313 1561.253906 777.945313 C 1555.726563 777.945313 1550.394531 777.636719 1545.222656 777.050781 C 1540.082031 776.464844 1534.996094 775.496094 1529.9375 774.121094 L 1529.9375 755.925781 C 1532.410156 756.742188 1534.96875 757.480469 1537.664063 758.195313 C 1540.328125 758.882813 1543.023438 759.519531 1545.746094 760.03125 C 1548.46875 760.5625 1551.164063 760.972656 1553.832031 761.277344 C 1556.523438 761.582031 1559.109375 761.738281 1561.640625 761.738281 C 1565.40625 761.738281 1568.597656 761.429688 1571.207031 760.84375 C 1573.847656 760.234375 1575.992188 759.417969 1577.644531 758.347656 C 1579.320313 757.300781 1580.53125 756.054688 1581.273438 754.601563 C 1582.015625 753.148438 1582.398438 751.542969 1582.398438 749.8125 C 1582.398438 747.414063 1581.65625 745.402344 1580.171875 743.796875 C 1578.714844 742.191406 1576.761719 740.738281 1574.34375 739.515625 C 1571.921875 738.265625 1569.171875 737.144531 1566.09375 736.152344 C 1562.988281 735.15625 1559.851563 734.085938 1556.664063 732.941406 C 1553.472656 731.792969 1550.339844 730.496094 1547.230469 729.042969 C 1544.152344 727.613281 1541.402344 725.832031 1538.980469 723.691406 C 1536.5625 721.550781 1534.609375 719.003906 1533.152344 716.019531 C 1531.667969 713.066406 1530.925781 709.496094 1530.925781 705.316406 C 1530.925781 701.496094 1531.667969 697.851563 1533.179688 694.410156 C 1534.691406 690.996094 1537.058594 687.988281 1540.273438 685.441406 C 1543.492188 682.867188 1547.617188 680.828125 1552.675781 679.300781 C 1557.734375 677.796875 1563.8125 677.03125 1570.960938 677.03125 C 1573.050781 677.03125 1575.25 677.109375 1577.53125 677.285156 C 1579.816406 677.464844 1582.070313 677.695313 1584.296875 677.976563 C 1586.523438 678.230469 1588.667969 678.5625 1590.730469 678.945313 C 1592.820313 679.300781 1594.71875 679.683594 1596.421875 680.089844 L 1596.421875 696.910156 C 1594.71875 696.296875 1592.820313 695.761719 1590.785156 695.253906 C 1588.75 694.769531 1586.632813 694.308594 1584.460938 693.953125 C 1582.289063 693.570313 1580.089844 693.289063 1577.890625 693.085938 C 1575.691406 692.882813 1573.601563 692.78125 1571.621094 692.78125 C 1568.128906 692.78125 1565.1875 693.035156 1562.765625 693.570313 C 1560.347656 694.082031 1558.367188 694.820313 1556.800781 695.738281 C 1555.234375 696.652344 1554.105469 697.773438 1553.417969 699.125 C 1552.730469 700.476563 1552.371094 701.953125 1552.371094 703.609375 C 1552.371094 705.648438 1553.117188 707.40625 1554.601563 708.859375 C 1556.058594 710.339844 1558.035156 711.664063 1560.457031 712.808594 C 1562.902344 713.980469 1565.679688 715.078125 1568.761719 716.097656 C 1571.867188 717.117188 1575.03125 718.210938 1578.273438 719.382813 C 1581.519531 720.558594 1584.683594 721.882813 1587.789063 723.386719 C 1590.867188 724.863281 1593.644531 726.699219 1596.09375 728.839844 C 1598.511719 730.980469 1600.492188 733.5 1601.949219 736.40625 C 1603.433594 739.3125 1604.175781 742.75 1604.175781 746.753906 Z M 1520.90625 727.03125 C 1520.90625 735.898438 1519.78125 743.542969 1517.554688 749.964844 C 1515.328125 756.359375 1512.273438 761.632813 1508.371094 765.789063 C 1504.464844 769.917969 1499.902344 772.972656 1494.675781 774.960938 C 1489.425781 776.949219 1483.84375 777.945313 1477.875 777.945313 C 1463.988281 777.945313 1453.570313 773.6875 1446.585938 765.152344 C 1439.601563 756.613281 1436.109375 744.203125 1436.109375 727.945313 C 1436.109375 719.078125 1437.234375 711.433594 1439.460938 705.011719 C 1441.691406 698.589844 1444.742188 693.339844 1448.648438 689.1875 C 1452.550781 685.058594 1457.117188 682 1462.339844 680.011719 C 1467.59375 678.027344 1473.203125 677.03125 1479.140625 677.03125 C 1493.027344 677.03125 1503.449219 681.289063 1510.433594 689.800781 C 1517.414063 698.308594 1520.90625 710.71875 1520.90625 727.03125 Z M 1499.957031 727.945313 C 1499.957031 716.378906 1498.277344 707.738281 1494.953125 702.054688 C 1491.625 696.375 1486.152344 693.546875 1478.507813 693.546875 C 1474.6875 693.546875 1471.441406 694.285156 1468.746094 695.761719 C 1466.050781 697.214844 1463.851563 699.378906 1462.09375 702.210938 C 1460.359375 705.0625 1459.066406 708.554688 1458.269531 712.734375 C 1457.472656 716.886719 1457.0625 721.652344 1457.0625 727.03125 C 1457.0625 738.597656 1458.738281 747.238281 1462.09375 752.917969 C 1465.445313 758.601563 1470.917969 761.429688 1478.507813 761.429688 C 1482.332031 761.429688 1485.601563 760.691406 1488.296875 759.214844 C 1491.019531 757.761719 1493.246094 755.59375 1494.953125 752.765625 C 1496.683594 749.914063 1497.949219 746.421875 1498.746094 742.242188 C 1499.542969 738.089844 1499.957031 733.324219 1499.957031 727.945313 Z M 1413.964844 776.261719 L 1412.066406 721.09375 L 1411.351563 699.074219 L 1406.265625 713.929688 L 1394.523438 747.210938 L 1382.125 747.210938 L 1371.621094 713.929688 L 1367.191406 699.074219 L 1366.617188 720.660156 L 1364.800781 776.261719 L 1347.972656 776.261719 L 1353.167969 678.714844 L 1375.578125 678.714844 L 1384.789063 706.464844 L 1389.21875 722.109375 L 1393.671875 707.355469 L 1403.460938 678.714844 L 1426.257813 678.714844 L 1431.453125 776.261719 Z M 1312.175781 678.714844 L 1332.304688 678.714844 L 1332.304688 776.261719 L 1312.175781 776.261719 Z M 1296.085938 740.332031 C 1296.085938 746.550781 1295.179688 752.027344 1293.390625 756.714844 C 1291.578125 761.40625 1289.019531 765.328125 1285.664063 768.464844 C 1282.285156 771.597656 1278.1875 773.96875 1273.375 775.546875 C 1268.535156 777.152344 1263.089844 777.945313 1257.097656 777.945313 C 1250.304688 777.945313 1244.503906 777.152344 1239.691406 775.546875 C 1234.851563 773.96875 1230.921875 771.675781 1227.921875 768.695313 C 1224.898438 765.710938 1222.726563 762.066406 1221.378906 757.785156 C 1220.03125 753.53125 1219.371094 748.714844 1219.371094 743.390625 L 1219.371094 678.714844 L 1239.167969 678.714844 L 1239.167969 742.292969 C 1239.167969 745.582031 1239.472656 748.484375 1240.105469 751.007813 C 1240.707031 753.558594 1241.78125 755.695313 1243.320313 757.480469 C 1244.859375 759.238281 1246.785156 760.5625 1249.09375 761.457031 C 1251.40625 762.347656 1254.320313 762.808594 1257.8125 762.808594 C 1261.082031 762.808594 1263.859375 762.425781 1266.117188 761.660156 C 1268.371094 760.871094 1270.269531 759.648438 1271.78125 757.914063 C 1273.265625 756.207031 1274.390625 753.988281 1275.160156 751.3125 C 1275.90625 748.636719 1276.289063 745.375 1276.289063 741.527344 L 1276.289063 678.714844 L 1296.085938 678.714844 Z M 1187.082031 776.261719 L 1172.207031 744.917969 C 1170.804688 741.9375 1168.851563 739.695313 1166.347656 738.164063 C 1163.847656 736.660156 1160.90625 735.898438 1157.550781 735.898438 L 1153.753906 735.898438 L 1153.753906 776.261719 L 1133.957031 776.261719 L 1133.957031 678.714844 L 1164.644531 678.714844 C 1170.445313 678.714844 1175.726563 679.171875 1180.453125 680.089844 C 1185.15625 681.007813 1189.199219 682.535156 1192.527344 684.675781 C 1195.851563 686.816406 1198.410156 689.621094 1200.226563 693.035156 C 1202.011719 696.476563 1202.917969 700.679688 1202.917969 705.648438 C 1202.917969 709.242188 1202.34375 712.429688 1201.214844 715.207031 C 1200.085938 717.984375 1198.492188 720.402344 1196.457031 722.417969 C 1194.394531 724.429688 1191.976563 726.0625 1189.144531 727.285156 C 1186.3125 728.53125 1183.261719 729.398438 1179.90625 729.910156 C 1182.488281 730.417969 1184.855469 731.769531 1187 733.984375 C 1189.144531 736.203125 1191.316406 739.414063 1193.460938 743.566406 L 1210.371094 776.261719 Z M 1182.132813 707.433594 C 1182.132813 702.640625 1180.484375 699.226563 1177.210938 697.136719 C 1173.9375 695.046875 1169.015625 694.003906 1162.472656 694.003906 L 1153.753906 694.003906 L 1153.753906 721.523438 L 1161.8125 721.523438 C 1164.890625 721.523438 1167.667969 721.21875 1170.171875 720.632813 C 1172.671875 720.023438 1174.789063 719.128906 1176.578125 717.957031 C 1178.335938 716.757813 1179.714844 715.28125 1180.675781 713.496094 C 1181.636719 711.738281 1182.132813 709.726563 1182.132813 707.433594 Z M 1090.121094 694.003906 L 1090.121094 776.261719 L 1069.828125 776.261719 L 1069.828125 694.003906 L 1040.957031 694.003906 L 1040.957031 678.714844 L 1118.992188 678.714844 L 1118.992188 694.003906 Z M 1027.96875 746.753906 C 1027.96875 752.078125 1026.894531 756.691406 1024.777344 760.617188 C 1022.660156 764.566406 1019.691406 767.800781 1015.898438 770.375 C 1012.074219 772.921875 1007.539063 774.835938 1002.285156 776.082031 C 997.007813 777.332031 991.289063 777.945313 985.046875 777.945313 C 979.519531 777.945313 974.183594 777.636719 969.015625 777.050781 C 963.875 776.464844 958.785156 775.496094 953.726563 774.121094 L 953.726563 755.925781 C 956.203125 756.742188 958.757813 757.480469 961.453125 758.195313 C 964.121094 758.882813 966.816406 759.519531 969.539063 760.03125 C 972.261719 760.5625 974.957031 760.972656 977.621094 761.277344 C 980.316406 761.582031 982.902344 761.738281 985.429688 761.738281 C 989.199219 761.738281 992.386719 761.429688 995 760.84375 C 997.640625 760.234375 999.785156 759.417969 1001.433594 758.347656 C 1003.113281 757.300781 1004.320313 756.054688 1005.0625 754.601563 C 1005.804688 753.148438 1006.191406 751.542969 1006.191406 749.8125 C 1006.191406 747.414063 1005.449219 745.402344 1003.964844 743.796875 C 1002.507813 742.191406 1000.554688 740.738281 998.132813 739.515625 C 995.714844 738.265625 992.964844 737.144531 989.886719 736.152344 C 986.777344 735.15625 983.644531 734.085938 980.453125 732.941406 C 977.265625 731.792969 974.128906 730.496094 971.023438 729.042969 C 967.945313 727.613281 965.195313 725.832031 962.773438 723.691406 C 960.355469 721.550781 958.402344 719.003906 956.945313 716.019531 C 955.460938 713.066406 954.71875 709.496094 954.71875 705.316406 C 954.71875 701.496094 955.460938 697.851563 956.972656 694.410156 C 958.484375 690.996094 960.847656 687.988281 964.066406 685.441406 C 967.285156 682.867188 971.40625 680.828125 976.46875 679.300781 C 981.527344 677.796875 987.601563 677.03125 994.753906 677.03125 C 996.84375 677.03125 999.042969 677.109375 1001.324219 677.285156 C 1003.605469 677.464844 1005.859375 677.695313 1008.089844 677.976563 C 1010.316406 678.230469 1012.460938 678.5625 1014.523438 678.945313 C 1016.613281 679.300781 1018.511719 679.683594 1020.214844 680.089844 L 1020.214844 696.910156 C 1018.511719 696.296875 1016.613281 695.761719 1014.578125 695.253906 C 1012.542969 694.769531 1010.425781 694.308594 1008.253906 693.953125 C 1006.082031 693.570313 1003.882813 693.289063 1001.683594 693.085938 C 999.480469 692.882813 997.390625 692.78125 995.410156 692.78125 C 991.921875 692.78125 988.976563 693.035156 986.558594 693.570313 C 984.140625 694.082031 982.160156 694.820313 980.589844 695.738281 C 979.023438 696.652344 977.898438 697.773438 977.210938 699.125 C 976.523438 700.476563 976.164063 701.953125 976.164063 703.609375 C 976.164063 705.648438 976.90625 707.40625 978.390625 708.859375 C 979.847656 710.339844 981.828125 711.664063 984.25 712.808594 C 986.695313 713.980469 989.472656 715.078125 992.554688 716.097656 C 995.660156 717.117188 998.820313 718.210938 1002.066406 719.382813 C 1005.3125 720.558594 1008.472656 721.882813 1011.582031 723.386719 C 1014.660156 724.863281 1017.4375 726.699219 1019.886719 728.839844 C 1022.304688 730.980469 1024.285156 733.5 1025.742188 736.40625 C 1027.226563 739.3125 1027.96875 742.75 1027.96875 746.753906 Z M 916.625 776.261719 L 888.332031 718.035156 L 882.503906 705.496094 L 882.503906 776.261719 L 864.519531 776.261719 L 864.519531 678.714844 L 888.773438 678.714844 L 917.671875 737.296875 L 922.757813 748.714844 L 922.757813 678.714844 L 940.742188 678.714844 L 940.742188 776.261719 Z M 855.824219 727.03125 C 855.824219 735.898438 854.695313 743.542969 852.46875 749.964844 C 850.242188 756.359375 847.1875 761.632813 843.285156 765.789063 C 839.378906 769.917969 834.816406 772.972656 829.589844 774.960938 C 824.339844 776.949219 818.757813 777.945313 812.789063 777.945313 C 798.90625 777.945313 788.484375 773.6875 781.5 765.152344 C 774.515625 756.613281 771.023438 744.203125 771.023438 727.945313 C 771.023438 719.078125 772.148438 711.433594 774.378906 705.011719 C 776.605469 698.589844 779.65625 693.339844 783.5625 689.1875 C 787.464844 685.058594 792.03125 682 797.253906 680.011719 C 802.507813 678.027344 808.117188 677.03125 814.054688 677.03125 C 827.941406 677.03125 838.363281 681.289063 845.347656 689.800781 C 852.332031 698.308594 855.824219 710.71875 855.824219 727.03125 Z M 834.871094 727.945313 C 834.871094 716.378906 833.191406 707.738281 829.867188 702.054688 C 826.539063 696.375 821.066406 693.546875 813.421875 693.546875 C 809.601563 693.546875 806.355469 694.285156 803.660156 695.761719 C 800.964844 697.214844 798.765625 699.378906 797.007813 702.210938 C 795.273438 705.0625 793.984375 708.554688 793.183594 712.734375 C 792.386719 716.886719 791.976563 721.652344 791.976563 727.03125 C 791.976563 738.597656 793.652344 747.238281 797.007813 752.917969 C 800.363281 758.601563 805.832031 761.429688 813.421875 761.429688 C 817.246094 761.429688 820.515625 760.691406 823.210938 759.214844 C 825.933594 757.761719 828.160156 755.59375 829.867188 752.765625 C 831.597656 749.914063 832.863281 746.421875 833.660156 742.242188 C 834.457031 738.089844 834.871094 733.324219 834.871094 727.945313 Z M 760.015625 772.4375 C 755.339844 774.199219 750.832031 775.496094 746.460938 776.363281 C 742.058594 777.203125 737.523438 777.636719 732.792969 777.636719 C 725.230469 777.636719 718.523438 776.59375 712.722656 774.527344 C 706.890625 772.464844 701.96875 769.40625 697.984375 765.304688 C 693.96875 761.226563 690.945313 756.15625 688.882813 750.117188 C 686.820313 744.078125 685.773438 737.042969 685.773438 729.015625 C 685.773438 720.8125 686.902344 713.496094 689.15625 707.101563 C 691.410156 700.707031 694.628906 695.304688 698.808594 690.894531 C 703.015625 686.484375 708.101563 683.121094 714.066406 680.804688 C 720.0625 678.484375 726.800781 677.339844 734.25 677.339844 C 736.671875 677.339844 738.925781 677.390625 741.042969 677.492188 C 743.1875 677.59375 745.25 677.769531 747.285156 678.050781 C 749.347656 678.332031 751.410156 678.6875 753.5 679.121094 C 755.589844 679.582031 757.761719 680.167969 760.015625 680.855469 L 760.015625 699.050781 C 755.449219 697.0625 751.105469 695.660156 746.980469 694.820313 C 742.855469 693.976563 739.089844 693.546875 735.707031 693.546875 C 730.730469 693.546875 726.46875 694.386719 722.921875 696.042969 C 719.375 697.722656 716.460938 700.042969 714.179688 703.074219 C 711.921875 706.082031 710.246094 709.648438 709.175781 713.828125 C 708.101563 717.984375 707.550781 722.542969 707.550781 727.511719 C 707.550781 732.789063 708.101563 737.503906 709.203125 741.683594 C 710.300781 745.835938 712.007813 749.351563 714.316406 752.230469 C 716.625 755.136719 719.566406 757.328125 723.167969 758.855469 C 726.742188 760.359375 731.035156 761.125 735.957031 761.125 C 737.714844 761.125 739.640625 760.972656 741.703125 760.640625 C 743.765625 760.308594 745.855469 759.902344 747.972656 759.367188 C 750.117188 758.855469 752.207031 758.21875 754.269531 757.507813 C 756.332031 756.792969 758.253906 756.054688 760.015625 755.316406 Z M 658.628906 746.753906 C 658.628906 752.078125 657.578125 756.691406 655.503906 760.617188 C 653.429688 764.566406 650.523438 767.800781 646.804688 770.375 C 643.0625 772.921875 638.617188 774.835938 633.472656 776.082031 C 628.300781 777.332031 622.699219 777.945313 616.585938 777.945313 C 611.171875 777.945313 605.949219 777.636719 600.882813 777.050781 C 595.847656 776.464844 590.863281 775.496094 585.910156 774.121094 L 585.910156 755.925781 C 588.332031 756.742188 590.839844 757.480469 593.476563 758.195313 C 596.089844 758.882813 598.730469 759.519531 601.394531 760.03125 C 604.0625 760.5625 606.703125 760.972656 609.3125 761.277344 C 611.953125 761.582031 614.484375 761.738281 616.960938 761.738281 C 620.652344 761.738281 623.777344 761.429688 626.335938 760.84375 C 628.921875 760.234375 631.023438 759.417969 632.636719 758.347656 C 634.28125 757.300781 635.464844 756.054688 636.191406 754.601563 C 636.921875 753.148438 637.296875 751.542969 637.296875 749.8125 C 637.296875 747.414063 636.570313 745.402344 635.117188 743.796875 C 633.6875 742.191406 631.777344 740.738281 629.40625 739.515625 C 627.035156 738.265625 624.34375 737.144531 621.324219 736.152344 C 618.28125 735.15625 615.210938 734.085938 612.089844 732.941406 C 608.964844 731.792969 605.894531 730.496094 602.851563 729.042969 C 599.832031 727.613281 597.140625 725.832031 594.769531 723.691406 C 592.398438 721.550781 590.488281 719.003906 589.058594 716.019531 C 587.605469 713.066406 586.878906 709.496094 586.878906 705.316406 C 586.878906 701.496094 587.605469 697.851563 589.085938 694.410156 C 590.570313 690.996094 592.886719 687.988281 596.035156 685.441406 C 599.1875 682.867188 603.226563 680.828125 608.183594 679.300781 C 613.136719 677.796875 619.089844 677.03125 626.09375 677.03125 C 628.140625 677.03125 630.292969 677.109375 632.53125 677.285156 C 634.765625 677.464844 636.972656 677.695313 639.15625 677.976563 C 641.335938 678.230469 643.4375 678.5625 645.457031 678.945313 C 647.503906 679.300781 649.363281 679.683594 651.035156 680.089844 L 651.035156 696.910156 C 649.363281 696.296875 647.503906 695.761719 645.511719 695.253906 C 643.519531 694.769531 641.445313 694.308594 639.316406 693.953125 C 637.191406 693.570313 635.035156 693.289063 632.878906 693.085938 C 630.726563 692.882813 628.679688 692.78125 626.738281 692.78125 C 623.320313 692.78125 620.4375 693.035156 618.066406 693.570313 C 615.695313 694.082031 613.757813 694.820313 612.222656 695.738281 C 610.6875 696.652344 609.582031 697.773438 608.910156 699.125 C 608.238281 700.476563 607.886719 701.953125 607.886719 703.609375 C 607.886719 705.648438 608.613281 707.40625 610.066406 708.859375 C 611.496094 710.339844 613.433594 711.664063 615.804688 712.808594 C 618.203125 713.980469 620.921875 715.078125 623.9375 716.097656 C 626.980469 717.117188 630.078125 718.210938 633.257813 719.382813 C 636.433594 720.558594 639.53125 721.882813 642.578125 723.386719 C 645.59375 724.863281 648.3125 726.699219 650.710938 728.839844 C 653.082031 730.980469 655.019531 733.5 656.445313 736.40625 C 657.902344 739.3125 658.628906 742.75 658.628906 746.753906 Z M 577.066406 727.03125 C 577.066406 735.898438 575.960938 743.542969 573.78125 749.964844 C 571.597656 756.359375 568.609375 761.632813 564.785156 765.789063 C 560.960938 769.917969 556.488281 772.972656 551.371094 774.960938 C 546.226563 776.949219 540.761719 777.945313 534.917969 777.945313 C 521.316406 777.945313 511.109375 773.6875 504.265625 765.152344 C 497.425781 756.613281 494.003906 744.203125 494.003906 727.945313 C 494.003906 719.078125 495.109375 711.433594 497.289063 705.011719 C 499.472656 698.589844 502.460938 693.339844 506.285156 689.1875 C 510.109375 685.058594 514.582031 682 519.699219 680.011719 C 524.84375 678.027344 530.335938 677.03125 536.15625 677.03125 C 549.757813 677.03125 559.964844 681.289063 566.804688 689.800781 C 573.644531 698.308594 577.066406 710.71875 577.066406 727.03125 Z M 556.542969 727.945313 C 556.542969 716.378906 554.902344 707.738281 551.640625 702.054688 C 548.382813 696.375 543.023438 693.546875 535.535156 693.546875 C 531.792969 693.546875 528.613281 694.285156 525.972656 695.761719 C 523.335938 697.214844 521.179688 699.378906 519.457031 702.210938 C 517.761719 705.0625 516.496094 708.554688 515.714844 712.734375 C 514.933594 716.886719 514.527344 721.652344 514.527344 727.03125 C 514.527344 738.597656 516.171875 747.238281 519.457031 752.917969 C 522.742188 758.601563 528.101563 761.429688 535.535156 761.429688 C 539.28125 761.429688 542.484375 760.691406 545.125 759.214844 C 547.789063 757.761719 549.972656 755.59375 551.640625 752.765625 C 553.339844 749.914063 554.578125 746.421875 555.359375 742.242188 C 556.140625 738.089844 556.542969 733.324219 556.542969 727.945313 Z M 458.335938 694.003906 L 458.335938 776.261719 L 438.460938 776.261719 L 438.460938 694.003906 L 410.179688 694.003906 L 410.179688 678.714844 L 486.617188 678.714844 L 486.617188 694.003906 Z M 375.457031 776.261719 L 347.742188 718.035156 L 342.03125 705.496094 L 342.03125 776.261719 L 324.417969 776.261719 L 324.417969 678.714844 L 348.171875 678.714844 L 376.480469 737.296875 L 381.460938 748.714844 L 381.460938 678.714844 L 399.074219 678.714844 L 399.074219 776.261719 Z M 311.859375 740.332031 C 311.859375 746.550781 310.96875 752.027344 309.21875 756.714844 C 307.441406 761.40625 304.9375 765.328125 301.652344 768.464844 C 298.339844 771.597656 294.324219 773.96875 289.609375 775.546875 C 284.871094 777.152344 279.539063 777.945313 273.667969 777.945313 C 267.015625 777.945313 261.332031 777.152344 256.617188 775.546875 C 251.878906 773.96875 248.027344 771.675781 245.089844 768.695313 C 242.128906 765.710938 240 762.066406 238.679688 757.785156 C 237.359375 753.53125 236.714844 748.714844 236.714844 743.390625 L 236.714844 678.714844 L 256.105469 678.714844 L 256.105469 742.292969 C 256.105469 745.582031 256.402344 748.484375 257.023438 751.007813 C 257.613281 753.558594 258.664063 755.695313 260.171875 757.480469 C 261.683594 759.238281 263.566406 760.5625 265.828125 761.457031 C 268.089844 762.347656 270.945313 762.808594 274.367188 762.808594 C 277.574219 762.808594 280.292969 762.425781 282.5 761.660156 C 284.710938 760.871094 286.566406 759.648438 288.050781 757.914063 C 289.503906 756.207031 290.609375 753.988281 291.363281 751.3125 C 292.089844 748.636719 292.464844 745.375 292.464844 741.527344 L 292.464844 678.714844 L 311.859375 678.714844 Z M 311.859375 740.332031 "/>
<path style=" stroke:none;fill-rule:evenodd;fill:rgb(92.941284%,10.980225%,14.117432%);fill-opacity:1;" d="M 1202.667969 351.050781 C 1204.460938 334.765625 1198.183594 327.921875 1187.578125 317.15625 C 1179.414063 308.867188 1171.1875 300.632813 1163.113281 292.253906 C 1154.976563 283.816406 1146.738281 275.476563 1138.597656 267.035156 C 1130.261719 258.398438 1122.566406 248.261719 1110.074219 245.902344 C 1095.171875 243.085938 1086.207031 250.085938 1076.761719 260.320313 C 1061.695313 276.644531 1041.414063 294.726563 1027.523438 310.492188 C 1018.394531 320.851563 1009.535156 325.132813 1007.488281 340.238281 C 1005.253906 356.726563 1010.871094 364.09375 1021.902344 374.910156 C 1030.390625 383.230469 1038.019531 391.707031 1046.304688 400.113281 C 1054.523438 408.449219 1063.25 416.59375 1071.316406 425.023438 C 1080.425781 434.539063 1085.636719 444.453125 1099.949219 445.785156 C 1116.914063 447.359375 1123.34375 443.441406 1134.117188 431.46875 C 1141.710938 423.027344 1150.515625 414.640625 1158.523438 406.476563 C 1166.769531 398.078125 1174.796875 389.410156 1183.160156 381.132813 C 1192.875 371.523438 1201.054688 365.707031 1202.667969 351.050781 "/>
<path style=" stroke:none;fill-rule:evenodd;fill:rgb(67.059326%,12.940979%,52.157593%);fill-opacity:1;" d="M 1366.480469 208.648438 C 1368.71875 188.289063 1360.871094 179.738281 1347.617188 166.28125 C 1337.410156 155.917969 1327.128906 145.621094 1317.035156 135.152344 C 1306.863281 124.601563 1296.566406 114.179688 1286.386719 103.628906 C 1275.96875 92.832031 1266.347656 80.15625 1250.730469 77.207031 C 1232.105469 73.6875 1220.898438 82.441406 1209.089844 95.230469 C 1190.257813 115.636719 1164.90625 138.242188 1147.539063 157.953125 C 1136.128906 170.898438 1125.054688 176.25 1122.496094 195.132813 C 1119.707031 215.742188 1126.726563 224.953125 1140.515625 238.472656 C 1151.128906 248.875 1160.664063 259.46875 1171.023438 269.980469 C 1181.292969 280.398438 1192.199219 290.578125 1202.285156 301.117188 C 1213.671875 313.011719 1220.1875 325.40625 1238.074219 327.066406 C 1259.285156 329.039063 1267.320313 324.140625 1280.785156 309.171875 C 1290.28125 298.621094 1301.285156 288.136719 1311.296875 277.933594 C 1321.605469 267.429688 1331.636719 256.597656 1342.09375 246.253906 C 1354.238281 234.238281 1364.460938 226.964844 1366.480469 208.648438 "/>
<path style=" stroke:none;fill-rule:evenodd;fill:rgb(27.058411%,53.726196%,25.097656%);fill-opacity:1;" d="M 1086.488281 208.648438 C 1088.730469 188.289063 1080.882813 179.738281 1067.628906 166.28125 C 1057.421875 155.917969 1047.140625 145.621094 1037.046875 135.152344 C 1026.875 124.601563 1016.578125 114.179688 1006.398438 103.628906 C 995.980469 92.832031 986.359375 80.15625 970.742188 77.207031 C 952.117188 73.6875 940.910156 82.441406 929.101563 95.230469 C 910.269531 115.636719 884.917969 138.242188 867.550781 157.953125 C 856.140625 170.898438 845.066406 176.25 842.507813 195.132813 C 839.71875 215.742188 846.738281 224.953125 860.527344 238.472656 C 871.140625 248.875 880.675781 259.46875 891.03125 269.980469 C 901.304688 280.398438 912.210938 290.578125 922.296875 301.117188 C 933.683594 313.011719 940.199219 325.40625 958.085938 327.066406 C 979.296875 329.039063 987.332031 324.140625 1000.796875 309.171875 C 1010.292969 298.621094 1021.296875 288.136719 1031.308594 277.933594 C 1041.613281 267.429688 1051.648438 256.597656 1062.105469 246.253906 C 1074.25 234.238281 1084.472656 226.964844 1086.488281 208.648438 "/>
<path style=" stroke:none;fill-rule:evenodd;fill:rgb(32.548523%,16.078186%,44.7052%);fill-opacity:1;" d="M 1084.949219 496.351563 C 1087.1875 475.992188 1079.339844 467.441406 1066.085938 453.984375 C 1055.878906 443.621094 1045.597656 433.324219 1035.503906 422.855469 C 1025.332031 412.304688 1015.035156 401.878906 1004.855469 391.332031 C 994.4375 380.535156 984.816406 367.859375 969.199219 364.910156 C 950.574219 361.390625 939.367188 370.140625 927.558594 382.933594 C 908.726563 403.335938 883.378906 425.941406 866.007813 445.652344 C 854.597656 458.601563 843.523438 463.953125 840.964844 482.832031 C 838.175781 503.445313 845.195313 512.65625 858.984375 526.171875 C 869.597656 536.578125 879.132813 547.171875 889.492188 557.679688 C 899.761719 568.101563 910.667969 578.28125 920.753906 588.816406 C 932.140625 600.710938 938.65625 613.109375 956.542969 614.769531 C 977.753906 616.738281 985.789063 611.839844 999.253906 596.875 C 1008.75 586.320313 1019.753906 575.839844 1029.765625 565.636719 C 1040.074219 555.132813 1050.105469 544.300781 1060.5625 533.957031 C 1072.707031 521.941406 1082.929688 514.667969 1084.949219 496.351563 "/>
<path style=" stroke:none;fill-rule:evenodd;fill:rgb(86.274719%,35.293579%,16.862488%);fill-opacity:1;" d="M 1368.019531 497.121094 C 1370.261719 476.761719 1362.414063 468.210938 1349.160156 454.753906 C 1338.953125 444.390625 1328.671875 434.097656 1318.578125 423.625 C 1308.40625 413.074219 1298.109375 402.652344 1287.929688 392.101563 C 1277.511719 381.304688 1267.890625 368.628906 1252.273438 365.679688 C 1233.648438 362.160156 1222.441406 370.914063 1210.632813 383.707031 C 1191.800781 404.109375 1166.449219 426.714844 1149.082031 446.425781 C 1137.671875 459.371094 1126.597656 464.722656 1124.039063 483.605469 C 1121.246094 504.214844 1128.269531 513.425781 1142.058594 526.945313 C 1152.671875 537.347656 1162.207031 547.945313 1172.5625 558.453125 C 1182.835938 568.871094 1193.742188 579.050781 1203.828125 589.589844 C 1215.210938 601.484375 1221.730469 613.878906 1239.617188 615.539063 C 1260.828125 617.511719 1268.863281 612.613281 1282.328125 597.644531 C 1291.824219 587.09375 1302.828125 576.613281 1312.839844 566.40625 C 1323.144531 555.90625 1333.179688 545.070313 1343.636719 534.726563 C 1355.78125 522.710938 1366.003906 515.441406 1368.019531 497.121094 "/>
<path style=" stroke:none;fill-rule:evenodd;fill:rgb(30.587769%,58.824158%,53.726196%);fill-opacity:1;" d="M 1125.582031 183.84375 C 1124.15625 187.050781 1123.09375 190.722656 1122.496094 195.132813 C 1119.707031 215.742188 1126.726563 224.953125 1140.515625 238.472656 C 1151.128906 248.875 1160.664063 259.46875 1171.023438 269.980469 C 1181.292969 280.398438 1192.199219 290.578125 1202.285156 301.117188 C 1213.671875 313.011719 1220.1875 325.40625 1238.074219 327.066406 C 1247.011719 327.898438 1253.609375 327.507813 1259.261719 325.660156 L 1259.261719 246.371094 C 1259.261719 211.984375 1231.125 183.84375 1196.734375 183.84375 Z M 1125.582031 183.84375 "/>
<path style=" stroke:none;fill-rule:evenodd;fill:rgb(61.961365%,74.902344%,23.136902%);fill-opacity:1;" d="M 1086.488281 208.648438 C 1087.671875 197.914063 1086.046875 190.464844 1082.304688 183.84375 L 1007.089844 183.84375 C 972.699219 183.84375 944.5625 211.984375 944.5625 246.371094 L 944.5625 322.945313 C 948.335938 325.089844 952.695313 326.566406 958.085938 327.066406 C 979.296875 329.039063 987.332031 324.140625 1000.796875 309.171875 C 1010.292969 298.621094 1021.296875 288.136719 1031.308594 277.933594 C 1041.613281 267.429688 1051.648438 256.597656 1062.105469 246.253906 C 1074.25 234.238281 1084.472656 226.964844 1086.488281 208.648438 "/>
<path style=" stroke:none;fill-rule:evenodd;fill:rgb(54.902649%,15.293884%,51.765442%);fill-opacity:1;" d="M 1084.949219 496.351563 C 1087.1875 475.992188 1079.339844 467.441406 1066.085938 453.984375 C 1055.878906 443.621094 1045.597656 433.324219 1035.503906 422.855469 C 1025.332031 412.304688 1015.035156 401.878906 1004.855469 391.332031 C 994.4375 380.535156 984.816406 367.859375 969.199219 364.910156 C 959.289063 363.035156 951.480469 364.636719 944.5625 368.472656 L 944.5625 445.214844 C 944.5625 479.605469 972.699219 507.742188 1007.089844 507.742188 L 1082.207031 507.742188 C 1083.527344 504.425781 1084.46875 500.699219 1084.949219 496.351563 "/>
<path style=" stroke:none;fill-rule:evenodd;fill:rgb(89.411926%,67.451477%,13.725281%);fill-opacity:1;" d="M 1259.261719 367.765625 C 1257.0625 366.859375 1254.746094 366.148438 1252.273438 365.679688 C 1233.648438 362.160156 1222.441406 370.914063 1210.632813 383.707031 C 1191.800781 404.109375 1166.449219 426.714844 1149.082031 446.425781 C 1137.671875 459.371094 1126.597656 464.722656 1124.039063 483.605469 C 1122.65625 493.808594 1123.683594 501.21875 1126.742188 507.742188 L 1196.734375 507.742188 C 1231.125 507.742188 1259.261719 479.605469 1259.261719 445.214844 Z M 1259.261719 367.765625 "/>
</g>
</svg>
