<?xml version="1.0" encoding="UTF-8"?>
<!DOCTYPE svg PUBLIC "-//W3C//DTD SVG 1.1//EN" "http://www.w3.org/Graphics/SVG/1.1/DTD/svg11.dtd">
<!-- Creator: CorelDRAW 2020 (64-Bit) -->
<svg xmlns="http://www.w3.org/2000/svg" xml:space="preserve" width="279.4mm" height="180mm" version="1.1" style="shape-rendering:geometricPrecision; text-rendering:geometricPrecision; image-rendering:optimizeQuality; fill-rule:evenodd; clip-rule:evenodd"
viewBox="0 0 27940 18000"
 xmlns:xlink="http://www.w3.org/1999/xlink"
 xmlns:xodm="http://www.corel.com/coreldraw/odm/2003">
 <defs>
  <style type="text/css">
   <![CDATA[
    .str0 {stroke:#B8EEE4;stroke-width:7.62;stroke-miterlimit:22.9256}
    .fil1 {fill:#283142}
    .fil13 {fill:#4B738B}
    .fil12 {fill:#596EB2}
    .fil10 {fill:#6693C7}
    .fil6 {fill:#7B434C}
    .fil9 {fill:#7EE1CE}
    .fil5 {fill:#B8EEE4}
    .fil7 {fill:#B9C7E4}
    .fil11 {fill:#FBA370}
    .fil8 {fill:#FBCBAC}
    .fil3 {fill:#FEFEFE}
    .fil0 {fill:url(#id1)}
    .fil16 {fill:url(#id2)}
    .fil14 {fill:url(#id3)}
    .fil17 {fill:url(#id4)}
    .fil4 {fill:url(#id5)}
    .fil2 {fill:url(#id6)}
    .fil15 {fill:url(#id7)}
   ]]>
  </style>
   <clipPath id="id0">
    <rect x="1979.99" y="21247.81" width="23663.21" height="14662.71"/>
   </clipPath>
  <linearGradient id="id1" gradientUnits="userSpaceOnUse" x1="14011.14" y1="17340.73" x2="14011.14" y2="68.89">
   <stop offset="0" style="stop-opacity:1; stop-color:white"/>
   <stop offset="1" style="stop-opacity:1; stop-color:#27CCAC"/>
  </linearGradient>
  <linearGradient id="id2" gradientUnits="userSpaceOnUse" x1="25715.19" y1="4930.52" x2="25715.19" y2="3980.83">
   <stop offset="0" style="stop-opacity:1; stop-color:white"/>
   <stop offset="0.509804" style="stop-opacity:1; stop-color:#FFD8A1"/>
   <stop offset="1" style="stop-opacity:1; stop-color:#FEB142"/>
  </linearGradient>
  <linearGradient id="id3" gradientUnits="userSpaceOnUse" xlink:href="#id2" x1="15010.73" y1="2750.29" x2="15010.73" y2="812.56">
  </linearGradient>
  <linearGradient id="id4" gradientUnits="userSpaceOnUse" xlink:href="#id2" x1="14066.54" y1="7183.56" x2="14066.54" y2="5499.52">
  </linearGradient>
  <linearGradient id="id5" gradientUnits="userSpaceOnUse" xlink:href="#id2" x1="4821.26" y1="2499.16" x2="4821.26" y2="203.24">
  </linearGradient>
  <linearGradient id="id6" gradientUnits="userSpaceOnUse" xlink:href="#id2" x1="21844.19" y1="9636.29" x2="21844.19" y2="6397.07">
  </linearGradient>
  <linearGradient id="id7" gradientUnits="userSpaceOnUse" xlink:href="#id2" x1="21659.68" y1="3741.89" x2="21659.68" y2="2057.85">
  </linearGradient>
 </defs>
 <g id="Capa_x0020_1">
  <metadata id="CorelCorpID_0Corel-Layer"/>
  <g style="clip-path:url(#id0)">
   <image id="vision.jpg" x="1979.99" y="21247.81" width="23663.21" height="14662.71" xlink:href="vision_Images\vision_ImgID1.png"/>
  </g>
  <path class="fil0" d="M18504.56 8878.12c79.66,-590.95 444.68,-916.67 974.32,-1058.32 7.01,-1949.14 2899.48,-1921.37 2692.46,244.13 1093.37,-148.46 1453.8,315.68 1935.39,829.93 747.66,-375.41 1310.49,-39.52 1630.37,472.04 504.14,-274.79 992.54,-181.93 1214.81,243.17 -3201,-0.07 -7010.4,64.47 -10097.58,-5.43 391.7,-647.79 654.87,-918.11 1650.23,-725.52zm-15432.88 -7637.3c92.44,-421.25 272.38,-737.89 785.11,-704.83 508.19,32.78 654.32,449.84 641.26,871.57 482.76,-50.72 848.68,120.62 972.13,426.89 548.6,-128.32 608.61,-92.31 924.49,243.92 278.98,-119.38 508.54,-112.03 624.35,139.25l-5308.76 -4.33c186.4,-393.07 331,-425.58 871.16,-388.94 126.12,-565.11 177.19,-345.51 490.26,-583.53zm-2997.49 12102.53c444.62,-178.15 721.05,-321.32 1279.63,-334.1 242.89,-5.57 484.35,20.28 720.78,72.92 224.82,50.18 407.64,167.84 604.97,196.5l1253.44 -425.03c34.57,-69.62 46.39,-111.89 76.02,-188.73 21.03,-54.37 26.18,-85.36 51.55,-128.67 42.26,-72.09 54.43,-67.49 87.49,-100.69 191.14,-880.85 730.61,-605.51 931.44,-612.94 184.95,-6.8 233.68,-52.09 406.95,-23.37 166.2,104.68 234.99,256.65 323.45,392.73l287.91 94.51 -2.68 -177.05c-41.37,-577.27 -1.65,-1325.41 6.4,-1921.65 8.86,-656.93 -39.73,-1306.43 -72.31,-1959.58 -5.63,-5.09 -175.81,25.09 -87.01,-147.98 -227.98,-77.87 -920.93,-739.89 -873.98,-1032.82 1.92,-11.82 589.16,-1050.96 903.81,-1200.65 180.28,-85.78 355.75,-140.42 510.46,-181.93l96.29 39.52 -96.29 -39.52 11.27 -129.15c-36.36,-154.99 49.28,-20.82 -95.46,-145.64 -367.03,-334.31 -376.92,-1150.76 812.87,-1053.44l149.7 213.62 -127.43 289.42 115.95 -12.57c96.84,-64.75 164.54,-60.07 244.07,-125.78 208.94,-172.52 -119.73,126.67 45.5,-63.3 13.26,-15.26 62.33,-58.97 81.65,-77.46 58.07,-121.17 -164.61,-130.45 151.96,-82.48 245.92,-188.66 396.92,-144.81 405.03,199.8l-202.96 95.67c16.98,149.7 48.59,109.77 -106.12,109.77l6.73 137.87c222.14,251.14 576.93,982.71 532.46,1335.92l-975.36 294.72c-153.88,1729.88 95.33,4915.01 7.29,5435.02 478.92,125.03 412.11,238.64 505.65,543.11 130.25,423.87 391.35,-48.24 768.27,564.83 119.11,226.13 41.66,348.33 50.93,586.14 883.95,563.87 1199.63,595.28 2196.91,720.02l1790.17 2458.3c138.15,185.3 187.43,172.72 260.49,381.52l14836.02 0 0 -17271.84 -27873.91 0 0 13274.46zm7359.9 -8475.67l-30.59 187.01 -180.55 -11.61c-29.14,306.95 -9.01,299.87 -162.07,492.32l37.8 117.39c267.85,235.61 525.66,231.41 905.87,300.15 -86.39,-324.55 -209.07,-567.45 -130.72,-841.48 -3.3,-3.78 -75.06,-86.73 -75.54,-87.49 -64.95,-109.01 -5.84,10.31 -67.56,-143.3l-200.07 87.49c-7.29,6.19 -27.08,14.16 -40.21,21.93l-56.36 -122.41z"/>
  <path class="fil1" d="M2679.57 13320.34c149.83,162.56 243.24,128.52 656.03,565.48 1122.31,1188.18 654.6,2521.55 806.22,2783.96 1211.03,-255.31 2393.82,175.08 3243.19,1110.81l5727.07 0c-73.06,-229.27 -122.34,-215.46 -260.49,-418.92l-1790.17 -2699.28c-997.28,-136.97 -1312.96,-171.46 -2196.91,-790.6 -11.34,12.15 -29.62,12.22 -34.09,36.22 -4.81,26.26 -222,489.11 -553.55,611.52 -304.07,112.22 -822.23,105.28 -1037.5,-87.24 -432.79,2.79 -881.61,-377.27 -1131.85,-592.35 -270.87,-232.74 -448.2,-733.55 -1087.33,-627.29 -552.38,105.88 -990.2,353.41 -1366.91,629.18l279.73 -988.19 -1253.44 466.7z"/>
  <path class="fil2" d="M18445.66 8878.12c-995.36,-192.59 -1258.53,77.73 -1650.23,725.52 3087.18,69.9 6896.59,5.36 10097.59,5.43 -222.28,-425.1 -710.68,-517.96 -1214.82,-243.17 -319.87,-511.56 -882.71,-847.45 -1630.36,-472.04 -481.6,-514.25 -842.02,-978.39 -1935.39,-829.93 207.01,-2165.5 -2685.45,-2193.27 -2692.46,-244.13 -529.64,141.65 -894.67,467.37 -974.33,1058.32z"/>
  <path class="fil1" d="M5830.67 6796.12l119.18 -43.91 -9.14 138.42 71.41 995.43c-113.89,-111.62 -65.98,-55.4 -137.6,-181.25l-279.87 -541.11c139.18,-192.66 136.63,-128.32 236.02,-367.58zm2043.16 -1684.66c-78.35,274.03 44.33,516.93 130.72,841.48 -380.21,-68.74 -638.02,-64.54 -905.87,-300.15 -181.03,94.98 -317.88,66.39 -519.88,51.55l-96.29 -39.52c-154.71,41.51 -330.18,96.15 -510.46,181.93 -314.65,149.69 -901.89,1188.83 -903.81,1200.65 -46.95,292.93 646,954.95 873.98,1032.82 94.09,-103.44 -18.83,-146.67 81.31,-44.19l5.7 192.17c32.58,653.15 81.17,1302.65 72.31,1959.58 -8.05,596.24 -47.77,1344.38 -6.4,1921.65l185.03 11.34c67.97,-86.4 40.75,-0.62 81.37,-135.68 16.5,-54.71 17.19,-131.34 24.61,-191.07 17.39,-139.93 42.68,-279.18 61.03,-420.01 33.75,-258.64 68.32,-514.45 99.87,-772.61 43.57,-356.91 115.47,-1199.9 248.94,-1449.94l481.46 2784.9c77.46,232.11 12.3,72.31 106.6,176.71l155.61 -26.26c88.04,-520.01 -161.17,-3705.14 -7.29,-5435.02l975.36 -294.72c44.47,-353.21 -310.32,-1084.78 -532.46,-1335.92l-101.44 90.31z"/>
  <path class="fil3" d="M4148.07 12435.55c282.28,226.33 179.52,376.37 465.1,654.39 109.76,0.55 229.15,-25.29 296.3,-15.95 296.23,41.24 150.73,58.84 200.14,137.47l-89.42 -30.86c639.13,-96.78 816.46,359.32 1087.33,571.29 250.24,195.88 699.06,542.01 1131.85,539.46 434.11,31.48 646,-76.15 981,-200 -70.66,-275.89 -231.97,-273.83 -210.94,-568.75 298.16,-145.16 574.87,-119.25 661.74,-153.2 237.61,-92.92 89.15,14.71 142.41,-174.65 -376.92,-613.07 -638.02,-140.96 -768.27,-564.83 -93.54,-304.47 -26.73,-418.08 -505.65,-543.11l-155.61 26.26c-178.22,165.5 -326.61,296.44 -559.6,350.46 -11,-10.04 -24.54,-25.16 -31.07,-32.17 -6.39,-6.87 -21.72,-24.12 -29.69,-32.51 -150.45,-157.6 -128.94,-179.52 -476.99,-113.13l-188.88 0.76 -287.91 -94.51c-88.46,-136.08 -157.25,-288.05 -323.45,-392.73 -173.27,-28.72 -222,16.57 -406.95,23.37 -200.83,7.43 -740.3,-267.91 -931.44,612.94z"/>
  <path class="fil4" d="M3058.52 1167.45c-426.82,324.49 -496.44,25.11 -668.39,795.54 -736.41,-49.95 -933.56,-5.62 -1187.68,530.26l7237.63 5.91c-157.89,-342.58 -470.86,-352.61 -851.2,-189.84 -430.66,-458.4 -512.46,-507.5 -1260.4,-332.56 -168.29,-417.54 -667.17,-651.14 -1325.34,-581.99 17.81,-574.96 -181.41,-1143.55 -874.25,-1188.25 -699.02,-45.07 -944.34,386.62 -1070.37,960.93z"/>
  <path class="fil5 str0" d="M6280.17 12120.77l6.53 164.95c348.05,-66.39 326.54,-44.47 476.99,113.13 7.97,8.39 23.3,25.64 29.69,32.51 6.53,7.01 20.07,22.13 31.07,32.17 232.99,-54.02 381.38,-184.96 559.6,-350.46 -94.3,-104.4 -29.14,55.4 -106.6,-176.71l-481.46 -2784.9c-133.47,250.04 -205.37,1093.03 -248.94,1449.94 -31.55,258.16 -66.12,513.97 -99.87,772.61 -18.35,140.83 -43.64,280.08 -61.03,420.01 -7.42,59.73 -8.11,136.36 -24.61,191.07 -40.62,135.06 -13.4,49.28 -81.37,135.68z"/>
  <path class="fil6" d="M6398.32 5390.03l425.85 2.41c169.49,-108.67 162.76,-210.46 208.12,-463.18l201.17 -89.63 127.43 -289.42 -149.7 -213.62c-1189.79,-97.32 -1179.9,719.13 -812.87,1053.44z"/>
  <path class="fil7" d="M7239.37 14291.35c215.27,175.34 733.43,181.66 1037.5,79.46 331.55,-111.48 548.74,-533.01 553.55,-556.93 4.47,-21.86 22.75,-21.92 34.09,-32.99 -9.27,-237.81 68.18,-360.01 -50.93,-586.14 -53.26,189.36 95.2,81.73 -142.41,174.65 -86.87,33.95 -363.58,8.04 -661.74,153.2 -21.03,294.92 140.28,292.86 210.94,568.75 -335,123.85 -546.89,231.48 -981,200z"/>
  <path class="fil7" d="M3933.01 12853.64l-279.73 899.96c376.71,-251.14 814.53,-476.57 1366.91,-573l89.42 30.86c-49.41,-78.63 96.09,-96.23 -200.14,-137.47 -67.15,-9.34 -186.54,16.5 -296.3,15.95 -285.58,-278.02 -182.82,-428.06 -465.1,-654.39 -33.06,33.2 -45.23,28.6 -87.49,100.69 -25.37,43.31 -30.52,74.3 -51.55,128.67 -29.63,76.84 -41.45,119.11 -76.02,188.73z"/>
  <path class="fil8" d="M6824.17 5392.44c-11.13,7.07 -123.3,82.06 -125.29,84.4 -47.84,56.22 -17.74,-17.12 -49.7,104.67l-155.4 -45.84 -11.27 129.15 96.29 39.52c202,14.84 338.85,43.43 519.88,-51.55l-37.8 -117.39c153.06,-192.45 132.93,-185.37 162.07,-492.32l-13.2 -37.26 16.98 -111.75 6.73 -54.44 -201.17 89.63c-45.36,252.72 -38.63,354.51 -208.12,463.18z"/>
  <path class="fil9" d="M5940.71 6890.63c-43.51,-133.68 0.13,-25.36 -110.04,-94.51 -99.39,239.26 -96.84,174.92 -236.02,367.58l279.87 541.11c71.62,125.85 23.71,69.63 137.6,181.25l-71.41 -995.43z"/>
  <path class="fil3" d="M7872.59 4478.04c259.32,102.55 -10.58,-21.44 185.57,55.19l16.5 240.28 202.96 -95.67c-8.11,-344.61 -159.11,-388.46 -405.03,-199.8zm-151.96 82.48c-19.32,18.49 -68.39,62.2 -81.65,77.46 -165.23,189.97 163.44,-109.22 -45.5,63.3 -79.53,65.71 -147.23,61.03 -244.07,125.78l84.68 40.62 56.36 122.41c13.13,-7.77 32.92,-15.74 40.21,-21.93l200.07 -87.49c7.63,-10.24 16.43,-40.76 19.31,-32.99 41.93,111.96 32.17,-59.73 40.01,-72.31l81.85 -118.35c121.73,98.35 -14.7,-61.11 103.92,91.96l2.55 -196.37 -257.74 7.91z"/>
  <path class="fil8" d="M7730.73 4880.67c61.72,153.61 2.61,34.29 67.56,143.3 0.48,0.76 72.24,83.71 75.54,87.49l101.44 -90.31 -6.73 -137.87 7.28 -134.3c-118.62,-153.07 17.81,6.39 -103.92,-91.96l-81.85 118.35c-7.84,12.58 1.92,184.27 -40.01,72.31 -2.88,-7.77 -11.68,22.75 -19.31,32.99z"/>
  <path class="fil10" d="M7975.82 4748.98l-7.28 134.3c154.71,0 123.1,39.93 106.12,-109.77l-16.5 -240.28c-196.15,-76.63 73.75,47.36 -185.57,-55.19 -316.57,-47.97 -93.89,-38.69 -151.96,82.48l257.74 -7.91 -2.55 196.37z"/>
  <path class="fil11" d="M6493.78 5535.67l155.4 45.84c31.96,-121.79 1.86,-48.45 49.7,-104.67 1.99,-2.34 114.16,-77.33 125.29,-84.4l-425.85 -2.41c144.74,124.82 59.1,-9.35 95.46,145.64z"/>
  <polygon class="fil8" points="6097.82,12286.48 6286.7,12285.72 6280.17,12120.77 6095.14,12109.43 "/>
  <path class="fil12" d="M7209.75 5005.82l13.2 37.26 180.55 11.61 30.59 -187.01 -84.68 -40.62 -115.95 12.57 -6.73 54.44c185.23,22.82 55.53,-45.64 147.98,85.91l-164.96 25.84z"/>
  <path class="fil8" d="M6029.23 8228.2l-5.7 -192.17c-100.14,-102.48 12.78,-59.25 -81.31,44.19 -88.8,173.07 81.38,142.89 87.01,147.98z"/>
  <path class="fil7" d="M7209.75 5005.82l164.96 -25.84c-92.45,-131.55 37.25,-63.09 -147.98,-85.91l-16.98 111.75z"/>
  <path class="fil13" d="M5940.71 6890.63l9.14 -138.42 -119.18 43.91c110.17,69.15 66.53,-39.17 110.04,94.51z"/>
  <path class="fil14" d="M12923.46 1626.34c-505.4,273.87 -587.84,21.2 -791.44,671.43 -872,-42.15 -1105.44,-4.75 -1406.35,447.54l8570.13 4.98c-186.96,-289.13 -557.54,-297.6 -1007.91,-160.23 -509.95,-386.88 -606.81,-428.32 -1492.45,-280.67 -199.27,-352.4 -790,-549.56 -1569.34,-491.19 21.08,-485.26 -214.81,-965.15 -1035.21,-1002.87 -827.72,-38.04 -1118.2,326.3 -1267.43,811.01z"/>
  <path class="fil15" d="M20366.72 2765.09c-313.07,238.02 -364.14,18.42 -490.26,583.53 -540.15,-36.64 -684.76,-4.13 -871.16,388.94l5308.76 4.33c-115.81,-251.28 -345.37,-258.63 -624.35,-139.25 -315.88,-336.23 -375.88,-372.24 -924.49,-243.92 -123.44,-306.27 -489.37,-477.61 -972.13,-426.89 13.06,-421.73 -133.06,-838.79 -641.26,-871.57 -512.73,-33.06 -692.67,283.58 -785.11,704.83z"/>
  <path class="fil16" d="M24986.04 4379.67c-176.55,134.22 -205.35,10.38 -276.47,329.07 -304.62,-20.66 -386.17,-2.33 -491.28,219.34l2993.81 2.44c-65.31,-141.7 -194.76,-145.85 -352.09,-78.53 -178.14,-189.61 -211.98,-209.92 -521.36,-137.55 -69.61,-172.72 -275.97,-269.35 -548.22,-240.74 7.36,-237.83 -75.04,-473.03 -361.63,-491.52 -289.15,-18.64 -390.63,159.93 -442.76,397.49z"/>
  <path class="fil17" d="M12773.58 6206.76c-313.07,238.01 -364.14,18.42 -490.26,583.52 -540.15,-36.63 -684.76,-4.12 -871.16,388.95l5308.77 4.33c-115.81,-251.28 -345.38,-258.63 -624.35,-139.25 -315.89,-336.23 -375.89,-372.24 -924.5,-243.92 -123.44,-306.27 -489.36,-477.61 -972.13,-426.89 13.06,-421.73 -133.06,-838.79 -641.26,-871.58 -512.73,-33.06 -692.67,283.59 -785.11,704.84z"/>
 </g>
</svg>
